<?xml version="1.0" encoding="utf-8"?>
<!-- Generator: Adobe Illustrator 21.0.0, SVG Export Plug-In . SVG Version: 6.00 Build 0)  -->
<svg version="1.1" id="Layer_1" xmlns="http://www.w3.org/2000/svg" xmlns:xlink="http://www.w3.org/1999/xlink" x="0px" y="0px"
	 viewBox="0 0 23.8 12.2" style="enable-background:new 0 0 23.8 12.2;" xml:space="preserve">
<style type="text/css">
	.st0{fill:#DC1A51;}
	.st1{fill:#FFFFFF;}
</style>
<path class="st0" d="M0.2,2.1L0.1,2.2L0,2.2l0,0.5l0.2,0.1L0.2,3.1l0,0.4h0.4c0,0,1.4-0.2,1.5-0.1c0.1,0,3.5,0.6,3.5,0.6l0.8-0.4
	l0.6-0.7l0.1-0.2H7l0.1-0.1V2.1L6.5,1.9L7,1.7l0.6-0.5L7,0.9l0.3-0.5L7.1,0.3c0,0-1,0.1-1.1,0.1c0,0-0.9,0-0.9,0L4.9,0.5l-0.1,0
	l-0.1,0l-0.1,0l0,0.1l0,0.1L4.1,0.7l0,0.2l-0.2,0L3.9,0.8l-0.2,0L3.5,0.9L3,1.1L2.9,1.3L2.8,1.6l0,0.4L0.2,2.1z"/>
<path class="st0" d="M15.7,1.2l0.4,0.1h0.8l-0.1,0.8l-1.2,1.3l-0.4,3L15,6.7l-1.7,0.2l-1-1.2l-1.8-0.2l0-0.9l0.3,0l0-0.4L10.6,4
	l-0.1-0.1l0-0.3l0.2-0.1l0-0.3l0.1-0.1l0.2,0c0,0.1,0.1,0.1,0.1,0.1c0,0,0,0.2,0,0.2l0.3,0.3l0,0.2l0.2-0.2c0,0,0-0.8,0-0.8
	c0,0,0.5-0.4,0.5-0.4l0-0.4L12.3,2l1.6,1.2L15.7,1.2"/>
<path class="st0" d="M6.1,10.7v1h0.2l0.5-0.6l0.1-0.6L8,9.5l0.8-0.9l0-0.5L6,7L5.6,6.9l0-0.3L5.5,6.3l0.2-0.4l0.6-1.3l0.8-0.3
	l0.2-0.1l0.1-0.1l0.1-0.2V3.7L7.4,3.6l0-0.1l0-0.2L5.6,3.6L3.3,3.8L2.6,4.1v0.2l0.7,0.5L3.2,5.2l0.1,0.4l0.4,0.6l2,1.2l0.1,0
	c0,0,1.5,0.5,1.6,0.6C7.4,8.1,6.1,10.7,6.1,10.7z"/>
<path class="st0" d="M5.8,3.3C6,3.2,5.8,3.6,5.8,3.3L5.8,3.3z M5.6,3.4C5.7,3.4,5.7,3.3,5.6,3.4C5.7,3.3,5.5,3.4,5.6,3.4z M6,2.1
	c0,0,0.1-0.1,0.1-0.1C6,2,5.9,2,5.8,2C5.8,2.1,5.9,2.2,6,2.1z M20.7,11c0,0.1,0.1,0.2,0.2,0.2c0,0,0,0,0,0c0,0,0,0,0.1,0
	c0-0.1,0-0.1,0-0.1C20.9,11,20.7,11,20.7,11C20.7,11,20.7,11,20.7,11z M21,10.9C21,10.9,21,11,21,10.9C21,10.9,21,10.9,21,10.9
	C21,10.9,21,10.9,21,10.9z M20.7,10.9C20.7,10.9,20.7,10.9,20.7,10.9C20.7,10.9,20.7,10.9,20.7,10.9C20.7,10.9,20.7,10.9,20.7,10.9z
	 M22.4,11.5c0.1,0,0.1-0.2,0.3-0.2c-0.1-0.1,0.2-0.1,0-0.2c-0.1-0.1-0.1,0.1-0.2,0.1c-0.1,0.1-0.2,0.1-0.2,0.2
	C22.2,11.4,22.2,11.5,22.4,11.5C22.4,11.5,22.4,11.5,22.4,11.5z M22.7,10.7c0,0,0,0.1,0,0.1c0,0-0.1,0-0.1,0c0,0.1,0,0,0,0
	c0,0,0.1,0.1,0.1,0.1c0,0,0-0.1,0.1-0.1c0.1-0.1,0.2-0.2,0-0.2C22.8,10.7,22.8,10.6,22.7,10.7c0,0,0-0.1,0-0.2
	C22.6,10.5,22.7,10.7,22.7,10.7z M19.8,8.9C19.7,8.9,19.8,8.9,19.8,8.9C19.9,8.9,19.9,8.9,19.8,8.9C19.8,8.9,19.8,8.9,19.8,8.9z
	 M20.6,8.9c-0.1,0.1,0,0.4-0.2,0.4c0,0-0.2-0.1-0.2-0.1c0-0.1,0-0.1,0.1-0.2c-0.1,0-0.2-0.1-0.3-0.1c0,0,0,0,0.1,0.1
	c0,0-0.1,0.1-0.2,0.1c-0.1,0.1,0.1,0.1-0.1,0.1c-0.1,0-0.1-0.1-0.2,0c-0.1,0-0.1,0.1-0.2,0.1c0,0,0,0.1,0,0.1c0,0,0,0-0.1,0
	c0,0,0,0,0,0c-0.1,0-0.1,0.2-0.2,0.2c-0.1,0-0.2,0-0.3,0.1c0,0-0.1,0.1-0.1,0c0,0.1,0,0.2,0,0.3c-0.1-0.1,0,0.2,0,0.2
	c0.1,0.2,0.1,0.3,0,0.4c0.1,0,0.1,0.1,0.2,0.1c0.1,0,0.1-0.1,0.2-0.1c0.1,0,0.1,0,0.2,0c0,0,0-0.1,0.1-0.1c0,0,0.1-0.1,0.1-0.1
	c0,0,0.1,0,0.1,0c0.1,0,0.3-0.1,0.4,0c0.1,0,0.2,0.4,0.3,0.1c0.1,0,0,0.1,0,0.1c0.1,0,0.1,0,0,0.1c0.1,0,0.1,0.1,0.2,0.2
	c0,0,0.1,0,0.2,0c0.1,0,0-0.1,0.1-0.1c0,0,0,0.1,0.1,0.1c0.1,0,0.3-0.1,0.3-0.2c0-0.1,0-0.2,0.1-0.3c0.1-0.2,0.1-0.4,0-0.6
	c0,0,0-0.1-0.1-0.1c0,0,0-0.1,0-0.1c0,0-0.1,0-0.1,0c0,0,0-0.1,0-0.1c0,0-0.1-0.1-0.1-0.1c-0.1-0.1-0.1-0.2-0.1-0.3
	c0,0-0.1,0-0.1-0.1C20.6,9,20.6,8.9,20.6,8.9C20.6,8.9,20.6,8.9,20.6,8.9z M19.8,8.7C19.8,8.7,19.9,8.7,19.8,8.7
	C19.9,8.6,19.8,8.6,19.8,8.7z M19.5,8.6C19.5,8.7,19.5,8.7,19.5,8.6C19.5,8.6,19.5,8.6,19.5,8.6z M20.1,8.5C20,8.5,20,8.5,20.1,8.5
	C20,8.6,20.2,8.4,20.1,8.5z M20,8.4c0.1,0,0.1,0,0.2,0.1c0.1,0,0.1,0,0.1,0.1c0,0.1,0,0.1,0,0.1c0,0-0.1,0,0,0.1c0,0,0.1,0,0.1,0
	c0.1,0,0.1,0.1,0.2,0.1c0.1,0,0.1-0.1,0.2-0.1c0,0,0.1,0.1,0.1,0.1c0.1,0,0,0,0.1,0.1c0.2,0,0.1,0,0-0.1c0,0-0.1,0-0.1,0
	c0,0,0-0.1,0-0.1c0,0-0.1-0.1,0-0.1c0,0-0.1-0.1-0.2-0.2c-0.1-0.1-0.2-0.1-0.3-0.1c-0.2-0.1-0.2,0-0.3,0C20.1,8.3,20,8.3,20,8.4
	C19.9,8.3,20,8.4,20,8.4C20,8.4,20,8.4,20,8.4z M19.4,8.2C19.4,8.2,19.5,8.3,19.4,8.2C19.5,8.2,19.5,8.2,19.4,8.2z M20.1,8.2
	C20.1,8.2,20.1,8.2,20.1,8.2C20.2,8.3,20.2,8.3,20.1,8.2C20.2,8.2,20.2,8.2,20.1,8.2C20.2,8.2,20.2,8.2,20.1,8.2
	C20.1,8.2,20.2,8.2,20.1,8.2z M19.8,8.2C19.8,8.2,19.8,8.2,19.8,8.2c0,0.1,0.1,0.1,0.2,0.1C20,8.1,19.9,8.2,19.8,8.2z M19.8,8.2
	C19.9,8.1,19.7,8.1,19.8,8.2C19.8,8.1,19.8,8.2,19.8,8.2z M19.8,8.2C19.8,8.3,19.8,8.3,19.8,8.2C19.8,8.2,19.8,8.2,19.8,8.2z
	 M19.6,8.3c0,0,0.1,0,0.2,0C19.8,8.3,19.6,8.3,19.6,8.3z M19.6,8.3C19.6,8.3,19.5,8.3,19.6,8.3C19.6,8.4,19.6,8.3,19.6,8.3
	C19.6,8.3,19.6,8.3,19.6,8.3z M19.7,8c0,0.1-0.1,0.1-0.1,0.2c0,0.1,0,0,0.1,0C19.7,8.1,19.7,8,19.7,8C19.7,8,19.7,8,19.7,8
	C19.7,8,19.7,8,19.7,8z M19,8.3C19,8.3,19.1,8.4,19,8.3c0.1,0.1,0.1,0.2,0.1,0.2c0,0,0-0.1,0-0.2c0,0,0,0,0,0c0,0,0.1,0.2,0.1,0.2
	c0.1,0,0-0.2-0.1-0.2C19.5,8.2,19,8.1,19,8.3z M19.4,8c-0.1,0-0.4,0-0.3,0.1c0.1,0,0.1,0,0.2-0.1C19.3,8.1,19.3,8.1,19.4,8
	C19.4,8.1,19.5,8,19.4,8C19.4,8,19.4,8,19.4,8z M19.3,8.8c0,0.1,0.2-0.1,0.3-0.1C19.5,8.7,19.4,8.8,19.3,8.8z M19.3,8.8
	C19.3,8.8,19.3,8.9,19.3,8.8C19.3,8.9,19.3,8.9,19.3,8.8C19.3,8.9,19.3,8.8,19.3,8.8C19.3,8.8,19.3,8.8,19.3,8.8z M19.1,8.7
	c0.1,0.1,0.3,0,0.3,0C19.4,8.7,19.1,8.7,19.1,8.7z M19.1,8.7c-0.1,0,0.1,0.1,0.1,0.1C19.2,8.8,19.1,8.7,19.1,8.7
	C19.1,8.7,19.1,8.7,19.1,8.7z M18.9,8.7c0,0,0.1,0,0.2,0c0,0,0,0,0,0C19,8.7,19,8.7,18.9,8.7C18.9,8.7,18.9,8.7,18.9,8.7z M18.1,8.6
	c0.1,0.1,0.2,0.1,0.3,0.1c0.1,0,0.2,0.1,0.4,0.1c0-0.1-0.1-0.1-0.2-0.1c0,0,0,0,0.1,0C18.5,8.6,18.4,8.6,18.1,8.6z M17.9,8.5
	C17.9,8.5,17.9,8.5,17.9,8.5C17.9,8.5,17.9,8.5,17.9,8.5z M18.4,8c-0.1,0.1,0,0.2,0,0.2c0.1,0.1,0.1,0.1,0.3,0.1
	c0.1,0,0.1,0.1,0.2-0.1c0,0,0-0.1,0-0.1c0,0,0.1-0.1,0.1-0.1C18.9,8,19,8,18.9,7.9c0.1,0,0,0,0.1-0.1c0,0-0.2-0.1-0.2-0.1
	c-0.1,0-0.1,0.1-0.1,0.1C18.7,7.9,18.5,8.1,18.4,8z M17.6,7.8C17.5,7.8,17.5,7.8,17.6,7.8c-0.1,0,0,0.1,0.1,0.2
	c0.1,0.1,0.1,0.2,0.2,0.3c0,0.1,0.2,0.2,0.2,0.2c0.1,0,0.1-0.1,0.2-0.2c0-0.1-0.1-0.1-0.2-0.1C18.1,8.2,17.7,7.8,17.6,7.8
	C17.6,7.8,17.6,7.8,17.6,7.8z M19.4,7.6c-0.1,0-0.1,0.1-0.1,0.1c0.1-0.1,0.1,0,0.2,0.1c0-0.1,0-0.1,0-0.1c0,0,0-0.2,0-0.2
	C19.4,7.5,19.4,7.6,19.4,7.6C19.3,7.6,19.4,7.6,19.4,7.6z M19.1,7.2c0,0,0.1,0.2,0.1,0.2c0,0.1,0.1,0.1,0,0
	C19.3,7.4,19.2,7.2,19.1,7.2C19.1,7.2,19.2,7.2,19.1,7.2z M19.2,7.2c0.1,0.1,0.1,0.2,0.2,0.2c0-0.1-0.1-0.1-0.1-0.2
	C19.3,7.2,19.3,7.2,19.2,7.2C19.3,7.2,19.3,7.2,19.2,7.2z M19.1,7.3c-0.1,0.1-0.2,0.2-0.2,0.3C19,7.6,19.1,7.4,19.1,7.3
	C19.1,7.3,19.1,7.3,19.1,7.3z M19.2,6.9c-0.1,0.1-0.1,0.3,0,0.3C19.2,7.1,19.4,6.9,19.2,6.9z M19.2,6.4c0,0-0.1,0.1-0.1,0.2
	c0,0,0,0,0,0C19.2,6.6,19.2,6.5,19.2,6.4z M21,4.9c-0.1,0-0.1,0.1-0.2,0.1c-0.1,0-0.1,0-0.3-0.1c0,0,0,0.3-0.1,0.2
	c0,0-0.1,0.2,0,0.1c0,0,0,0,0,0c-0.1,0-0.1,0.2-0.2,0.3c0,0,0,0,0-0.1c0,0-0.1,0.1-0.1,0.1c0,0,0,0,0,0c0,0-0.1,0.1-0.1,0.1
	c-0.1-0.1-0.4,0.1-0.4,0.2c0,0,0.1,0,0.1,0c0,0.1-0.1,0.1,0,0.1c0-0.1,0.1-0.2,0-0.2c0-0.1,0.2-0.1,0.3-0.1c-0.1,0-0.2,0-0.2,0.1
	c0.1,0,0.1-0.1,0.2-0.1c0,0.1,0.1,0,0.1,0c0.3,0,0.2,0,0.3-0.3c0-0.1,0.1-0.2,0-0.3c0.1,0,0.2,0.1,0.2,0C20.7,5.1,21,5,21,4.9
	C21,4.9,21,4.9,21,4.9z M21.1,4.8C21.1,4.8,21.1,4.8,21.1,4.8C21.1,4.9,21.1,4.9,21.1,4.8C21.1,4.8,21.1,4.8,21.1,4.8z M22,3.7
	C22.1,3.7,22.1,3.7,22,3.7C22,3.6,22,3.7,22,3.7C22,3.7,22,3.7,22,3.7z M20.4,2.1c0.1,0,0.2,0,0.2,0C20.6,2,20.5,2,20.4,2.1z
	 M20.1,1.9C20.2,2,20.2,2,20.1,1.9C20.2,2,20.2,2,20.1,1.9z M17.5,1.6C17.5,1.6,17.5,1.6,17.5,1.6C17.5,1.5,17.5,1.6,17.5,1.6z
	 M14.5,2.6c-0.1,0-0.2-0.1-0.1,0.1C14.4,2.6,14.5,2.6,14.5,2.6C14.5,2.6,14.5,2.6,14.5,2.6z M14.7,2.1c-0.1,0-0.2,0.2-0.2,0.2
	c0,0,0.1,0,0.1,0c0,0,0,0,0,0c0.1,0,0,0.1,0.1,0.1c0.1,0,0.2,0,0.2,0c0-0.1-0.1-0.1-0.1-0.2c0-0.1,0.1-0.2,0.1-0.2
	c0.1-0.1,0.3-0.2,0.5-0.3c0.1,0,0.3-0.1,0.3-0.1c0-0.1-0.2,0-0.2,0c-0.1,0-0.5,0.1-0.5,0.2c0,0,0,0-0.1,0C14.9,2,14.7,2,14.7,2.1
	C14.7,2,14.7,2,14.7,2.1C14.8,2.1,14.8,2.1,14.7,2.1C14.7,2.1,14.7,2.1,14.7,2.1z M15.8,2.1C15.8,2.1,15.9,2.1,15.8,2.1
	C15.9,2.1,15.7,2.1,15.8,2.1z M20.8,3.7c0.2,0,0.2-0.1,0.3,0c0.1,0,0,0.1,0.1,0.1c0.1,0,0.1-0.1,0.2,0c0,0,0,0,0.1,0
	c0-0.1-0.1,0,0-0.1c0,0,0.1-0.1,0.1-0.1c0.1-0.1,0.2,0,0.2,0.1c0.2,0,0.2-0.2,0.3-0.2C22,3.4,22,3.5,21.9,3.6
	c-0.1,0.1-0.3,0.2-0.4,0.3c0,0.1,0,0.3,0,0.4c0,0.1,0,0.2,0.1,0.1c0.1-0.1,0.1-0.3,0.3-0.3c0-0.1,0-0.2,0.1-0.1c0-0.1,0-0.1,0-0.2
	c0,0,0,0-0.1,0c0,0,0.1-0.2,0.1-0.2c0.1-0.1,0.1,0,0.1,0c0,0,0,0,0.1,0c0,0,0-0.1,0.1-0.1c0,0,0.1,0,0.1,0c0.1,0,0,0.1,0.1,0.1
	c0-0.2,0.4-0.3,0.5-0.3c0.1,0,0.1,0.1,0.1-0.1c0-0.1-0.1-0.1-0.2-0.1c0,0,0.2,0,0.2,0c0.1,0,0.1-0.1,0.1-0.1c0.1,0,0.1,0.1,0.1,0.1
	c0,0,0.1,0,0.1,0c0.1,0,0.1,0.1,0.1,0.1c0.1,0,0,0,0.1,0c0.1,0,0-0.1,0-0.1c0,0,0.2,0.1,0.1-0.1c0,0-0.2-0.1-0.3-0.1
	c0,0,0.1,0.1,0,0c0,0,0-0.1,0-0.1c0,0-0.1,0-0.1,0c0,0-0.1-0.1-0.1-0.1c-0.1,0-0.1-0.1-0.2-0.1c-0.2-0.1-0.5-0.1-0.6,0
	c0.2,0.1-0.3,0.1,0,0c-0.1-0.1-0.1,0-0.2,0c-0.1,0-0.2,0-0.3,0c0,0,0,0.1,0,0.1c-0.1-0.1-0.1-0.3-0.3-0.3c-0.1,0-0.2,0-0.3,0
	c-0.1,0-0.1-0.1-0.2-0.1c0,0,0,0,0,0c-0.1-0.1-0.3,0.1-0.3,0c-0.1,0-0.1,0-0.2,0c-0.1,0-0.1,0-0.2,0c0,0.1,0.1,0.1,0.1,0.1
	c-0.1,0-0.1,0-0.2,0c0,0,0,0,0,0.1c-0.1,0-0.1-0.1-0.1-0.1c0,0-0.2,0-0.2,0c-0.1,0-0.1,0.1-0.1,0.1c0,0-0.1-0.1-0.1-0.1
	c0,0,0-0.1,0-0.2c-0.1-0.1-0.1,0-0.2,0c-0.1,0-0.2-0.1-0.2,0.1c-0.1,0-0.2,0-0.3,0c0,0-0.1-0.1-0.1-0.1c-0.1,0-0.2,0-0.3,0
	c0,0,0,0,0-0.1c0,0-0.1,0-0.1,0c0,0,0.2-0.1,0.1-0.1c-0.1,0-0.1,0.1-0.2,0.1c0,0.1-0.1,0.1-0.2,0.1c0.1,0,0.5-0.2,0.5-0.3
	c0-0.2-0.4-0.2-0.4-0.2c0,0,0,0,0-0.1c-0.1,0-0.1,0-0.2,0c0,0,0-0.1,0.1-0.1c-0.2,0-0.2,0.1-0.3,0.1c0,0,0,0,0,0
	c-0.1,0-0.1,0.1-0.3,0.1c0,0-0.1,0-0.2,0c0,0-0.1,0.1-0.2,0.1c-0.1,0-0.1,0-0.2,0c0,0-0.1,0.1-0.2,0.1c-0.1,0.1,0.1,0,0,0.1
	c-0.1,0.1-0.3,0-0.4,0.1c0,0.1,0.2,0.2,0.1,0.2c0,0-0.1-0.1-0.1-0.1c-0.1,0-0.1,0-0.2,0c0,0,0.1,0,0.1,0.1c-0.3,0,0,0,0,0.1
	c0-0.1-0.2,0-0.2-0.1c0,0,0-0.1,0-0.2c0,0,0,0,0,0c0,0.1-0.1,0.1-0.1,0.2c0,0,0,0.2,0,0.2c0.1,0.1,0.1,0,0.1,0
	c0.1,0,0.1,0.1,0.1,0.2c0,0,0.1,0,0.1,0c-0.1,0.1-0.1-0.3-0.3-0.1c0,0,0,0.1,0,0.1c0,0-0.1,0.1-0.1,0.1c-0.1,0.1-0.1,0-0.2,0
	c0,0,0.1,0,0.2-0.1C16,2.8,16,2.7,16,2.6c-0.1,0-0.1-0.3-0.1-0.4c0,0,0,0,0,0c0-0.1-0.2-0.1-0.3-0.1c0,0-0.1,0.2-0.1,0.2
	c0-0.1,0,0.2,0,0.1c0,0,0.1,0,0.1,0.1c0,0,0.1,0,0.1,0.1c0,0.1-0.1,0-0.1,0c-0.1,0-0.2-0.1-0.3-0.1c-0.1,0-0.2-0.1-0.3-0.1
	c-0.1,0,0.2,0.2,0,0.3c0-0.2-0.4,0.1-0.3-0.1c-0.1,0.1-0.2,0.1-0.3,0.1c0,0-0.3,0.2-0.2,0c0.2,0,0-0.1-0.1-0.1c0,0,0.1,0.3,0,0.3
	c0,0-0.1,0-0.1,0c0,0-0.1,0.1-0.1,0.1c0,0,0.1,0.1,0,0.1c-0.1,0-0.2,0-0.2-0.1c-0.1,0.1,0.1,0.1,0.1,0.1c0,0-0.1,0-0.1,0
	c-0.1-0.1-0.1,0-0.1-0.1c0-0.1-0.1-0.2-0.2-0.2c0.1,0,0.7,0.3,0.6,0c0-0.1-0.2-0.1-0.2-0.2c-0.1,0-0.2,0-0.3,0
	c0.1-0.1-0.2-0.1-0.2-0.1c0.1,0,0,0,0-0.1c-0.1-0.1-0.1,0-0.1,0c0,0,0-0.1,0-0.1c0,0-0.1,0-0.1,0c0,0,0,0.1,0,0.1c0,0,0,0-0.1-0.1
	c0,0.1,0,0.1,0,0c0,0,0,0,0,0c0,0,0,0,0,0c0,0-0.2,0.1-0.1,0c-0.1,0-0.1,0.1-0.1,0.1c0,0-0.1,0-0.1,0c0,0,0,0.1,0,0.1
	c0,0-0.1-0.1-0.1-0.1c0,0.1,0,0.2-0.1,0.1c-0.1,0.1,0,0,0,0.1c-0.1,0-0.1,0-0.1-0.1c0,0,0,0-0.1,0.1c0,0,0,0,0,0
	c-0.1,0-0.1,0-0.1,0.1c0.1,0,0.2-0.1,0.3-0.1C12.1,2.7,12,2.9,12,3c0,0-0.1,0-0.1,0.1c0,0,0,0,0.1,0c0,0.1-0.2,0.1-0.2,0.1
	c0,0,0,0,0,0.1c-0.2,0-0.2,0.1-0.3,0.3c0.2,0-0.1,0.1,0.1,0.1c0,0,0,0,0,0.1c0.2,0,0.2,0,0.3-0.1c0.1,0,0.1,0.3,0.2,0.3
	C12,4,12,4,12,4c0.1,0,0.1,0,0.1,0c0.1,0,0.1-0.1,0.2-0.1c0,0,0,0,0,0c0,0,0,0-0.1,0c0,0,0.1-0.1,0.1-0.2c0-0.1,0.1-0.1,0-0.1
	c0-0.1-0.1-0.2,0-0.3c0-0.1,0.1-0.1,0.2-0.1c0,0,0-0.1,0.1-0.2c0.1,0,0.2,0,0.2,0.1c0,0.1-0.4,0.2-0.2,0.4c0.1,0.2,0.4,0,0.6,0.1
	c-0.1,0.1-0.2,0.1-0.3,0.1c0,0-0.2,0.1-0.2,0.1c0,0,0,0,0,0c0,0-0.1,0-0.1,0c0,0.1,0.1,0,0.1,0c0,0,0.1,0,0.1,0.1
	c-0.1,0.2-0.1,0-0.2,0c-0.1,0-0.1,0.2-0.1,0.3c-0.1,0-0.2,0-0.1,0.1c-0.1-0.1-0.2,0-0.3,0c0,0-0.2-0.1-0.2,0c0,0-0.1,0-0.1,0
	C11.8,4,12,4.2,12,3.9c0,0-0.1,0-0.1,0c0,0,0-0.1,0-0.1c0,0,0,0,0,0c0-0.1,0-0.1-0.1,0c-0.1,0.1,0,0.1,0,0.2c0,0.2,0,0.1-0.1,0.1
	c-0.1,0-0.2,0.1-0.2,0.1c0.1,0.1-0.1,0.1-0.1,0.2c0,0-0.1,0.1-0.1,0.1c-0.1,0-0.1,0-0.1,0c0.1,0.2-0.1,0.1-0.2,0.1
	c-0.1,0.1,0,0,0,0.1c0,0,0.1,0.1,0.1,0.1c0.2,0.4-0.3,0.2-0.5,0.2c0,0.1,0,0.3,0,0.4c0,0.1,0,0,0.1,0.1c0.1,0,0.1,0,0.1,0.1
	c0,0,0,0,0,0c0.1,0,0.2-0.1,0.3-0.1c0,0,0,0,0.1,0c0,0,0-0.1,0-0.1c0,0,0-0.1,0-0.1c0,0,0.2-0.1,0.2-0.1c0,0,0-0.1,0-0.1
	c0,0,0.1,0,0.2,0c0,0,0.1-0.1,0.2-0.1c0.1,0,0.1,0.1,0.2,0.2c0.2,0.1,0.5,0.3,0,0.3c0.1,0.2,0.3,0,0.3-0.1c0,0,0,0-0.1,0
	c0,0,0,0,0,0c0,0,0.1,0,0.1,0c0-0.1-0.2-0.2-0.3-0.2C12.1,5.1,12,5,12,5c0-0.2,0.2,0,0.3,0.1c0.1,0.1,0.2,0.1,0.2,0.2
	c0,0,0.1,0.2,0.1,0.2c0,0,0,0-0.1,0c0,0.1,0.1,0.1,0.1,0c0,0.2,0.2,0,0.3,0c0,0,0,0-0.1,0c0,0,0,0,0,0c0,0-0.1-0.1-0.1-0.2
	c0,0,0.1,0,0.1,0c0,0,0,0,0,0C12.9,5.1,13,5.7,13,5.7c0,0,0-0.1,0-0.1c0.1,0.1,0.1,0,0.2,0c0,0,0.1,0,0.1,0c0,0,0.1,0.1,0.2,0
	c0,0,0,0,0-0.1c0.2,0,0.2,0.1,0.1,0.2c0,0.1-0.1,0.1-0.1,0.2c-0.1,0-0.1,0-0.2,0c0.1,0,0.1,0.3,0.2,0.2c0.1,0.2,0.2,0.4,0.3,0.5
	C13.8,6.8,13.9,6.9,14,7c0.1,0.2,0,0.3,0.2,0.3c0.1,0,0.2-0.1,0.3-0.1c0.1,0,0.2-0.1,0.2-0.1c0.1,0,0.2,0,0.2-0.1
	c0,0,0.1-0.1,0.1-0.1c0-0.1,0-0.1,0.1-0.1c0,0-0.1-0.1-0.1-0.1c-0.1-0.1,0-0.1-0.1,0c0,0,0-0.1-0.1-0.2c0,0,0,0.1-0.1,0.1
	c-0.1,0-0.4,0-0.1-0.1c0,0-0.2-0.1-0.2-0.1c0,0-0.1-0.1-0.1-0.2c0-0.2,0.1-0.1,0.1,0c0.1,0.1,0.2,0.1,0.3,0.2c0,0,0.1,0,0.1,0
	c0,0,0,0.1,0.1,0.1c0.1,0,0.2,0,0.3,0c0.2,0,0.2,0,0.3,0.1c0.1,0,0.1,0.1,0.2,0.1c-0.2,0,0,0.1,0.1,0.1c0.1,0,0-0.1,0.1,0
	c0,0.1,0,0.1,0,0.2c0,0.1,0.1,0.2,0.1,0.3c0,0.1,0.1,0.3,0.1,0.3c0.1,0,0.1,0,0.2-0.1c0-0.1,0-0.1,0-0.2c0,0,0-0.1,0-0.1
	c0-0.1,0,0,0.1-0.1c0.1-0.1,0.3-0.3,0.4-0.4c0,0,0.3-0.1,0.3-0.1c0,0,0.1,0.2,0.1,0.3c0.1,0,0,0.1,0.1,0.2c0.1,0,0.1-0.1,0.1,0
	c0.1,0,0.2,0.3,0.2,0.4c0,0.1-0.1,0.1,0,0.2c0,0.1,0.1,0.1,0.1,0.2c0,0.1,0.1,0.4,0.3,0.3C18,8,18,7.8,18,7.7
	c-0.1-0.1-0.2-0.1-0.2-0.2c0,0,0-0.2,0-0.2c0.1-0.1,0,0,0.1,0c0.1,0,0.1,0,0.1,0.1c0,0,0.1,0,0.1,0c0,0,0,0.1,0,0.1
	c0.1-0.1,0.2-0.1,0.2-0.2c0.1-0.1,0-0.3,0-0.4c-0.1-0.2-0.2-0.4,0.1-0.4c0,0.1-0.1,0.2-0.1,0.2c0.1,0.1,0.1-0.2,0.1-0.2
	c0.1,0,0.2,0,0.2-0.1c0.1,0,0.1,0,0.2-0.1c0.1-0.1,0.3-0.2,0.3-0.4c0-0.1,0,0,0-0.1c0,0,0,0,0-0.1c0-0.1-0.1-0.2-0.1-0.2
	c0-0.1,0.1-0.1,0.2-0.1c0-0.1,0,0-0.1-0.1c0,0,0,0.1-0.1,0.1c0-0.1-0.2,0-0.1-0.2c0,0,0.1-0.1,0.1-0.1c0.2-0.1,0.1-0.1,0,0.1
	c0,0,0.2-0.1,0.2-0.1c0.1,0,0,0.1,0,0.2c0.2-0.1,0.1,0.2,0.1,0.3c0.1,0,0.3-0.1,0.2-0.2c0-0.1-0.1-0.1-0.1-0.3c0,0,0.1,0,0.1,0
	c0,0,0-0.1,0-0.1c0,0,0.1-0.1,0.1-0.1c0,0,0.1,0,0.2,0c0.1,0,0.1,0,0.1-0.1c0.1-0.1,0.2-0.2,0.2-0.3c0.1-0.1,0-0.2,0.1-0.3
	c0.1-0.3,0.1,0.3,0.1,0.4c0,0,0,0,0.1-0.1c0,0,0,0.1,0.1,0.1c0-0.1-0.2-0.2,0-0.2c0,0-0.1-0.4-0.1-0.5c0,0,0,0,0,0
	c0,0.1,0,0.1,0,0.2c-0.1,0-0.1-0.1-0.2-0.2c0,0.1-0.1,0.1-0.1,0c0,0,0,0,0,0.1c-0.1,0,0,0,0-0.1c-0.1,0.1,0,0,0-0.1
	c0.1-0.1,0.1-0.1,0.2-0.2C20.5,3.7,20.6,3.7,20.8,3.7z M10.7,3.7C10.7,3.7,10.6,3.8,10.7,3.7C10.7,3.8,10.8,3.7,10.7,3.7
	C10.7,3.7,10.7,3.7,10.7,3.7z M10.9,4.3 M10.9,4.4c0,0-0.2,0.1-0.2,0.1C10.9,4.5,10.9,4.4,10.9,4.4c0.1,0.1,0.1,0.1,0.2,0.1
	c0.1,0,0.1-0.1,0.1-0.2c0-0.1-0.1,0-0.1,0c0,0,0-0.1,0-0.1c0,0-0.1-0.1-0.1-0.1C11,4,11,4,11,3.9c0,0,0.2-0.2-0.1-0.1
	c0,0,0-0.1,0.1-0.1c-0.1-0.1-0.1,0-0.1,0.1c0,0-0.2,0.1,0,0.1c0,0-0.1,0.1,0,0.1c0,0,0.1,0,0.1,0c0,0.1,0.1,0.1,0.1,0.2 M14.4,9.4
	c0-0.1,0.1-0.9,0-1c0,0-0.1,0.7-0.1,0.7c-0.1,0.1-0.1,0-0.2,0.1C14,9.3,14,9,14,9.1c0,0.1,0,0.4,0,0.5c0,0.1,0,0.3,0.2,0.3
	c0.1,0,0.1-0.1,0.1-0.2C14.3,9.6,14.3,9.5,14.4,9.4C14.4,9.5,14.4,9.5,14.4,9.4z M13.3,6.1C13.2,6,13.2,6,13,6
	c-0.2,0-0.4-0.1-0.6-0.1c0,0.2,0,0.2-0.1,0.2c0,0-0.1,0-0.1,0c0,0-0.1,0-0.1,0c0,0,0,0,0-0.1c-0.1,0-0.2-0.1-0.3-0.1
	c-0.1-0.1,0.1-0.1,0-0.2c0,0,0,0,0.1,0c-0.1-0.1-0.2,0-0.3,0c-0.1,0-0.2,0-0.3,0c-0.1,0-0.1,0.1-0.3,0.1c-0.1,0-0.2-0.1-0.2,0.1
	c0,0-0.1,0-0.1,0c0,0.2-0.1,0.1-0.1,0.1c0,0.1,0,0.2-0.1,0.3c0,0-0.1,0.1-0.2,0.1c0,0-0.1,0.1-0.1,0.2c0,0.1-0.2,0.2-0.2,0.3
	c0,0,0.1,0,0.1,0c0,0,0,0,0,0.1c0,0.1,0,0.2,0,0.3c0,0.1,0,0.2,0.1,0.3c0.1,0.1,0.2,0.2,0.3,0.3c0,0,0.1,0.1,0.1,0.1
	c0.1,0,0.1,0,0.2,0c0.1,0,0.1,0,0.2,0c0.1,0,0.1,0,0.2-0.1c0.1,0,0.2,0,0.3,0c0.1,0,0.1,0.1,0.2,0.1c0.2,0,0.2,0,0.2,0.1
	c0,0.1,0,0.2-0.1,0.3C11.9,8.3,12.1,8.7,12,9c0,0.2-0.2,0.2-0.1,0.5c0.1,0.1,0.1,0.2,0.1,0.4c0,0.2,0.2,0.3,0.2,0.4
	c0,0.1,0,0.2,0,0.2c0.2,0.2,0.6,0,0.7-0.2c0.1-0.1,0.1-0.1,0.2-0.2c0-0.1,0-0.2,0-0.2c0,0,0.1-0.1,0.2-0.1c0.1-0.1,0-0.2,0-0.3
	c0-0.1,0.2-0.2,0.3-0.2c0.1-0.1,0.1-0.3,0.1-0.4c0-0.1-0.1-0.3-0.1-0.4C13.8,8.3,14,8.1,14.1,8c0.1-0.1,0.2-0.2,0.3-0.3
	c0-0.1,0.1-0.1,0.1-0.2c0-0.2,0-0.1-0.1-0.1c-0.2,0-0.3,0.1-0.4-0.1c-0.1-0.1-0.2-0.2-0.3-0.3c-0.1-0.1-0.1-0.3-0.2-0.4
	C13.5,6.4,13.4,6.3,13.3,6.1C13.3,6.1,13.3,6.1,13.3,6.1z M6.2,11.4C6.2,11.4,6.2,11.4,6.2,11.4c0,0-0.1,0-0.1,0
	c0,0,0.1,0.1,0.1,0.1c0,0,0,0,0,0c-0.2,0,0,0.2-0.1,0.3c0,0,0,0,0.1,0c0,0,0,0,0,0c0,0,0,0,0.1,0c0,0,0.1,0.2,0.2,0.2
	c0.1,0.1,0.3,0,0.4,0c0,0-0.2-0.1-0.2-0.2c0-0.1-0.1-0.3,0-0.3c0-0.1,0-0.1,0-0.2c0-0.1,0-0.1,0-0.2c0,0,0.1,0,0.1,0
	c0,0,0-0.1,0-0.1c0,0,0.1-0.2,0.1-0.1c0-0.1-0.1,0-0.1-0.2C7,11.1,7,11,7,10.8c0.1,0,0.3,0,0.4-0.1c0.1-0.1-0.1-0.1-0.1-0.2
	c0.2,0,0.2,0.1,0.3,0c0.1,0,0.1-0.2,0.2-0.2c0,0,0,0,0,0.1C7.9,10.2,7.9,9.9,8,9.8C8,9.8,8.1,9.7,8.2,9.7c0.1,0,0.2,0,0.3-0.2
	C8.6,9.4,8.5,9.1,8.6,9c0.1-0.1,0.2-0.2,0.2-0.3c0-0.1,0-0.1,0-0.1c0-0.1,0-0.1-0.1-0.1C8.6,8.4,8.5,8.3,8.4,8.3c-0.1,0-0.3,0-0.2,0
	c0,0-0.1-0.1-0.1-0.1c-0.1,0-0.1,0-0.2,0c0,0,0-0.1,0-0.1c0,0-0.1,0-0.1,0c0,0,0,0.1-0.1,0.1c0,0,0.1-0.2,0-0.2
	c0-0.2-0.2-0.2-0.3-0.3c-0.1,0-0.3-0.1-0.3-0.3c-0.1,0-0.2,0-0.1,0c-0.1-0.1-0.2,0-0.2,0c-0.1,0-0.2-0.1-0.3-0.1
	c0,0.1,0,0.1-0.1,0.1c0,0,0,0.1,0,0.1c-0.1-0.1-0.1-0.2,0-0.2C6.3,7.3,6,7.5,6,7.6C6,7.7,6,7.8,6,7.9C6,8,5.8,8.1,5.8,8.1
	c0,0.1,0,0.1,0.1,0.1c0,0.1-0.2,0.1-0.1,0.3c0,0,0.1,0,0.1,0.1c0,0,0.1,0.1,0.1,0.1C6,8.8,6,9,6.1,9.1c0.1,0.1,0.2,0.1,0.3,0.2
	c0.2,0.1,0.1,0.4,0.1,0.6c0,0.1-0.1,0.2-0.1,0.3c0,0.1,0,0.3-0.1,0.4c-0.1,0.1-0.1,0.2-0.1,0.4c0,0,0,0.1,0,0.1c0,0,0,0,0,0.1
	c0,0.1,0.1-0.1,0.1-0.1C6.3,11.2,6.3,11.3,6.2,11.4c0-0.1,0-0.1,0-0.1C6.2,11.3,6.2,11.4,6.2,11.4z M7.4,4.4c0,0-0.2,0.3-0.2,0.3
	c0,0,0.1,0,0.2,0c0.1,0,0.1,0.1,0.2,0.1c0.1-0.2,0-0.2-0.2-0.3C7.4,4.5,7.5,4.3,7.4,4.4C7.4,4.4,7.4,4.4,7.4,4.4z M7,4.5
	c-0.1,0-0.1-0.1-0.2,0C6.9,4.5,7,4.6,7,4.5C7,4.5,7,4.6,7,4.5z M9,2.7C9,2.7,9,2.7,9,2.7c0.2,0.1,0.2,0,0.3,0c0.1,0,0.3-0.1,0.3-0.2
	C9.5,2.6,9.2,2.4,9.5,2.4c0,0,0.1,0.2,0.2,0c0,0-0.1-0.2-0.2-0.2c0,0,0.2,0.1,0.1,0c0-0.1-0.1-0.1-0.1,0c0,0,0,0,0,0c0,0,0,0,0,0
	c0,0,0.2,0.1,0.2,0C9.9,2,9.7,2,9.7,2c0,0,0.2,0,0.2,0c0,0-0.2-0.1,0-0.1c0-0.1-0.2-0.1-0.1-0.2c0,0,0.1,0,0.1,0c0.1,0,0,0,0.1,0.1
	c0-0.1,0.1-0.2-0.1-0.2c0-0.1,0,0,0.1-0.1c0-0.1-0.2,0-0.2,0C9.6,1.4,10,1.1,10.1,1.1c-0.1,0-0.1,0-0.2,0C10,1,10.1,1,10.2,1
	c0,0,0.2,0,0.1-0.1c0,0-0.2,0-0.2,0c-0.1,0-0.2,0-0.3,0.1c-0.1,0-0.3,0.1-0.3,0.1c0.1-0.2,0.2-0.2,0-0.2c0,0.1-0.1,0.1-0.2,0.1
	c0-0.1,0.1,0,0.1-0.1c-0.1-0.1-0.4,0.1-0.5,0c0-0.1,0.6-0.1,0.8-0.1c0,0,0,0,0,0c-0.1,0-0.2,0-0.3,0c-0.2,0-0.3,0-0.5,0
	c0.1-0.1,0.3,0,0.5,0c0-0.1-0.7-0.1-0.8,0c-0.1,0,0,0.1-0.1,0.1c-0.1,0-0.1,0-0.2,0c-0.1,0-0.2,0-0.3,0c0,0,0.1,0,0.1,0.1
	c0,0-0.2-0.1-0.1,0c0,0,0.2,0.1,0.2,0.1C8,0.9,7.9,0.8,7.7,0.8c0,0,0.1,0.1,0.1,0.1c-0.1,0-0.2-0.1-0.3-0.1c0,0.1,0,0.2,0,0.1
	c0,0,0-0.1,0-0.1c-0.1,0-0.3,0.1-0.3,0.1c0,0,0.1,0,0.2,0.1c-0.1,0-0.1,0-0.2-0.1c0,0,0,0-0.1,0c-0.1,0,0,0.1,0,0.1C7,1,6.9,1,6.8,1
	c0,0-0.1,0-0.1,0.1c0.1,0,0.1,0,0.1,0c0,0,0,0.1,0,0.1c0,0-0.1,0-0.1,0c-0.1,0-0.2,0-0.3,0.1C6.2,1.5,6.6,1.5,6.7,1.5
	c0,0.1-0.3,0-0.3,0.1c0,0,0.1,0.1,0.1,0.1c0,0,0,0,0,0c0,0,0.1,0.1,0.2,0.1c0,0,0,0,0,0c0.1,0,0.4,0,0.5,0C7.3,1.8,7.4,2,7.4,2.2
	c0,0,0,0,0,0c-0.1,0.2,0.2,0,0.3,0.3c-0.1,0-0.2-0.1-0.2,0c0,0.1-0.1,0.2,0.1,0.2c0.1,0,0.1-0.1,0-0.1c0.2,0,0.1,0,0.2,0.2
	c-0.1,0-0.1,0-0.1,0.1c-0.2,0,0,0.2,0,0.2c0,0,0.1,0,0.1,0c0,0-0.1,0,0,0.1c0,0,0,0.1,0,0.1c0,0,0.1,0,0.1,0c-0.1,0.1,0,0.3,0.1,0.4
	c0.1,0,0.3,0.1,0.4,0.1c0.1,0,0-0.2,0.1-0.2c0,0,0,0,0-0.1c0,0,0.1,0,0.1,0C8.5,3.1,8.4,3,8.6,3c0-0.1,0,0,0-0.1
	C8.6,3.1,9,2.7,9,2.7z M5.2,1.6c0.1,0.1,0.4,0.1,0.5,0.1c0,0.1,0.2,0,0.2-0.1c0,0,0,0-0.1,0c0,0,0,0,0-0.1c0.1,0,0.1,0,0.1-0.1
	c0.1,0,0.2,0,0.1-0.1c0,0,0.1,0,0.1,0c0-0.1-0.2-0.1-0.2,0c0,0,0,0,0,0c0.1-0.1,0.2,0,0.3-0.1c0,0,0,0-0.1,0c0.1,0,0.1,0,0.2,0
	c0,0,0,0-0.1-0.1c0.2,0,0.4-0.1,0.5-0.2c0,0-0.2,0-0.3,0c0.1-0.1,0.4,0,0.5-0.1c0-0.1-0.3-0.1-0.4-0.1c0,0-0.2-0.1-0.2-0.1
	C6.4,0.8,6,0.6,6,0.7c-0.1,0-0.3-0.1-0.4,0.1c0.1,0,0.2,0,0.2,0.1c-0.1,0-0.2-0.1-0.3-0.1c-0.1,0-0.1,0-0.2,0C5.3,0.8,5.1,0.9,5,0.9
	c0,0,0,0,0,0C5.1,0.9,5.1,1,5.2,1c0.1,0,0.1,0,0.3,0C5.3,1.1,5.6,1.1,5.7,1C5.8,1,5.9,0.9,6,0.9C6,0.9,5.9,1,5.9,1C5.9,1,6,1,6,1
	C6,1.1,5.7,1.1,5.6,1.1c0,0,0,0,0,0c0.1,0,0.1,0.1,0.2,0.1c-0.1,0-0.3-0.1-0.4-0.1c0,0.1,0.2,0.2,0.3,0.2c0,0,0,0.1-0.1,0.1
	c-0.2-0.2-0.5,0.1-0.1,0c0,0,0,0-0.1,0c0,0.1,0.1,0,0.2,0c-0.1,0.2-0.3,0-0.4,0C5.3,1.5,5.3,1.6,5.2,1.6z M5.2,1.4
	C5.3,1.4,5.3,1.4,5.2,1.4c0.3,0,0.2-0.2,0.1-0.3c0,0-0.4-0.2-0.4-0.2c0,0,0.1,0,0.1,0c0,0-0.1,0-0.1,0c0,0,0,0,0,0.1
	c0,0-0.1,0-0.1,0c0,0,0,0.1,0,0.1c0.1,0.1,0.2,0,0.3,0.1c-0.1,0-0.1,0-0.2,0C5,1.4,5.1,1.4,5.2,1.4z M5.1,1.5C5,1.5,5,1.5,5.1,1.5
	c0,0.1,0.1,0.1,0.1,0C5.2,1.5,5.1,1.5,5.1,1.5z M5.1,1.9c0.1,0,0.8,0,0.7-0.1c-0.1-0.1-0.4,0-0.5,0C5.2,1.8,5.2,1.6,5,1.6
	C5,1.8,5,1.9,5.1,1.9z M4.6,1.9C4.6,1.9,4.7,1.9,4.6,1.9C4.7,1.9,4.7,1.9,4.6,1.9z M4.7,1.8c0,0,0.2,0.1,0.2,0
	C4.9,1.7,4.8,1.8,4.7,1.8z M4.9,1.7c0.1-0.1,0-0.1-0.1-0.1C4.6,1.6,4.8,1.7,4.9,1.7z M4.8,1.5c0.1,0,0.1,0,0.2,0c0,0,0,0,0,0
	C4.9,1.5,4.8,1.5,4.8,1.5z M4.8,1.4c0.2,0-0.1-0.1-0.2-0.1C4.6,1.4,4.7,1.5,4.8,1.4z M4.6,1.2c0,0,0-0.1-0.1-0.1c0,0,0,0,0,0
	C4.5,1.2,4.5,1.2,4.6,1.2z M4.5,1.5c0.1-0.2-0.3-0.3-0.4-0.2c0,0,0.1,0.1,0.1,0.1c0,0,0,0-0.1,0C4.2,1.4,4.4,1.4,4.5,1.5z M4.4,1.5
	c0,0-0.1,0-0.1,0C4.3,1.5,4.4,1.5,4.4,1.5z M4.4,1.8c0.1,0,0.1,0,0.1,0.1c0.1,0,0.2,0,0.2-0.1c0-0.1-0.1-0.1-0.2-0.1
	c0,0,0.1,0.1,0.1,0.1c0,0-0.1-0.1-0.2-0.1C4.4,1.7,4.4,1.7,4.4,1.8C4.3,1.7,4.3,1.6,4.2,1.6C4.2,1.7,4.3,1.8,4.4,1.8z M4.2,1.8
	C4.2,1.8,4.3,1.9,4.2,1.8C4.3,1.8,4.2,1.8,4.2,1.8z M4.2,1.6c0,0-0.1-0.1-0.1-0.1C4.1,1.5,4.1,1.6,4.2,1.6z M6,2.8
	c0,0,0.2,0,0.1-0.1C6.1,2.7,6,2.7,6,2.8z M4.9,2.2C4.9,2.2,4.9,2.2,4.9,2.2C5,2.2,5.1,2.1,5.1,2C5.1,2,4.9,1.9,4.8,2
	C4.8,2,4.8,2.3,4.9,2.2z M4.6,2.3c0.2,0,0.2-0.1,0-0.2c0.1,0,0-0.1,0-0.1c0,0-0.1,0-0.2,0c0.1,0.1,0,0.2-0.1,0.1
	C4.3,2.2,4.5,2.3,4.6,2.3z M4.2,2.1C4.2,2,4.1,2,4,2C4.1,2.1,4.1,2.1,4.2,2.1z M4,2C4,2,4,2.1,4,2L4,2z M3.6,1.4c0.1,0,0.2,0,0.2,0
	C3.8,1.3,3.7,1.3,3.6,1.4z M3.7,1.5C3.8,1.5,3.9,1.5,3.7,1.5c0.1-0.1,0.1-0.1,0.2-0.1C3.8,1.4,3.7,1.4,3.7,1.5
	C3.6,1.5,3.7,1.5,3.7,1.5z M3.6,1.5C3.6,1.4,3.5,1.4,3.6,1.5C3.5,1.5,3.5,1.5,3.6,1.5z M3.5,1.7c-0.1,0-0.2,0.1-0.1,0.2
	c0.1,0,0.3,0,0.4,0c0,0-0.2,0-0.2,0.1c0,0.1,0.1,0,0.2,0c0.1,0,0.4-0.1,0.4-0.2c0,0-0.2-0.1-0.2-0.1c-0.1,0-0.1,0-0.1,0.1
	c0,0,0.1,0,0.1,0C3.9,1.8,3.6,1.7,3.5,1.7z M3.5,1.6C3.5,1.6,3.6,1.6,3.5,1.6C3.6,1.6,3.6,1.6,3.5,1.6C3.6,1.6,3.6,1.6,3.5,1.6z
	 M3.3,1.7C3.2,1.8,3.2,1.8,3.3,1.7C3.3,1.8,3.3,1.8,3.3,1.7C3.3,1.7,3.3,1.7,3.3,1.7z M3.4,1.7c0.1,0,0.1-0.1,0.1-0.1
	C3.2,1.5,3.2,1.7,3,1.7C3.1,1.8,3.2,1.7,3.4,1.7C3.3,1.7,3.3,1.6,3.4,1.7z M3.4,2.6c0.2,0,0.2,0.1,0.3,0.1c0.1,0,0.2-0.1,0.3-0.1
	c0.1,0,0.5,0.1,0.3-0.1c0.1,0,0.1,0,0.1,0C4.3,2.4,4.3,2.4,4.2,2.3c0,0-0.1-0.3-0.2-0.2c0,0.1,0.1,0.2,0,0.2c-0.1,0-0.1-0.2-0.2-0.2
	c0,0,0,0,0,0.1c0,0-0.1,0-0.1,0c0,0,0,0,0-0.1c-0.1,0-0.2,0-0.2,0c0-0.1-0.1-0.1-0.2,0C3.3,2.2,3.3,2.2,3.2,2.3c0.1,0,0.2,0,0.2,0
	c-0.1,0-0.1,0-0.2,0.1c0.1,0,0.3,0,0.4,0C3.7,2.5,3.4,2.5,3.4,2.6C3.4,2.5,3.4,2.5,3.4,2.6z M4,2.7c0.1,0,0.1,0,0.1-0.1
	C4,2.6,4,2.6,4,2.7C3.9,2.7,4,2.7,4,2.7z M3,2.3c0.1,0,0.2-0.1,0.3-0.2C3.5,2,3.5,2,3.3,2c-0.1,0-0.3-0.1-0.4,0c0,0,0,0.2-0.1,0.3
	C2.9,2.2,2.9,2.3,3,2.3C3,2.4,3,2.3,3,2.3z M0.1,3.6C0.1,3.5,0,3.6,0.1,3.6L0.1,3.6z M1.3,3.5c0-0.1,0.2,0,0.2,0c0.1,0,0.2,0,0.3,0
	C2,3.6,2.1,3.8,2.3,3.8c0,0,0,0.1,0.1,0.1c0,0,0.1,0,0.1,0.1c0.1,0.1,0.1,0.2,0.1,0.2c0.1,0.1,0.1,0.1,0.3,0.2C2.9,4.5,3,4.6,3,4.7
	c-0.1-0.1-0.2-0.1-0.1,0c0.1,0.1,0,0.3,0,0.4c0,0.2,0.1,0.5,0.2,0.6c0.1,0.1,0.2,0.1,0.3,0.2C3.4,6,3.5,6.1,3.5,6.2c0,0,0,0,0,0.1
	c0,0,0.1,0.1,0.1,0.1c0,0,0.1,0.2,0.1,0.2c0.1-0.1-0.3-0.5-0.3-0.6c0.1,0,0.3,0.3,0.3,0.3C4,6.4,4.1,6.6,4.2,6.7
	C4,6.8,4.7,7.1,4.8,7.1c0,0,0.1,0,0.1,0C5,7.1,5,7.1,5,7.2c0.1,0,0.2,0.1,0.2,0.1c0.1,0.1,0.1,0.2,0.2,0.2c0.1,0.1,0.2,0.1,0.3,0.2
	c0-0.2,0.2,0,0.2-0.1c0-0.1-0.2,0-0.3-0.1c-0.2-0.1,0-0.2-0.1-0.4C5.5,7,5.3,7.1,5.2,7c0.1-0.1,0.2-0.4,0-0.4
	c-0.2,0-0.1,0.1-0.2,0.2c-0.1,0.1-0.2,0-0.3,0C4.6,6.7,4.6,6.3,4.7,6.2c0.1-0.2,0.3,0,0.5-0.1C5.2,6,5.3,6,5.4,6c0,0,0.2,0,0.2,0
	c0.1,0,0.2,0.4,0.2,0.4c0.1,0-0.1-0.4,0-0.6C5.9,5.8,6,5.8,6.1,5.7c0-0.1,0-0.1,0-0.2c0.1,0,0,0,0.1,0c0,0,0.1-0.2,0.1-0.2
	c0,0,0.2,0,0.2-0.1C6.4,5,6.8,4.8,6.9,4.9c0,0-0.1,0-0.2,0.1C6.7,5.1,6.8,5,6.8,5C7,5,7.1,4.9,7.1,4.8C7,4.8,7,4.9,6.9,4.8
	c-0.2-0.1,0-0.2,0-0.2C6.8,4.4,6.5,4.7,6.4,4.8c0-0.1,0.1-0.1,0.1-0.1c0,0-0.1,0-0.1,0c0.1,0,0.2-0.1,0.3-0.2c0.1,0,0.2,0,0.3,0
	c0.1,0,0.1,0,0.2-0.1c0.1,0,0.2-0.1,0.2-0.2c0-0.1-0.2,0-0.3,0c0-0.1,0.1-0.1,0.2-0.1C7.2,4.1,7.1,4,7,3.9c0.1,0-0.1-0.3-0.2-0.4
	C6.8,3.6,6.8,3.7,6.7,3.7c-0.1,0-0.1-0.1-0.2-0.1c0.1-0.2-0.1-0.3-0.3-0.4C6,3.3,5.9,3.4,6,3.6c0,0,0,0,0,0c0,0,0,0.1,0,0.1
	c0.2,0.1,0.1,0.4-0.1,0.4c0.1,0.1,0.1,0.3,0,0.3C5.7,4.4,5.7,4.1,5.7,4C5.5,4,5.4,4,5.3,3.9c-0.1,0-0.1-0.1-0.2-0.1c0,0-0.1,0-0.1,0
	c0,0,0-0.1-0.1-0.1c-0.1-0.1-0.1,0-0.1-0.2c0-0.1,0.1-0.2,0.1-0.2c0,0,0.2-0.1,0.1-0.1c0,0-0.2-0.1-0.2-0.1c0.1,0,0.3,0.1,0.3,0
	c0.1,0.1,0.2,0,0.2-0.1C5.3,3,5.2,3,5.1,2.9C5.2,3,5.5,3,5.4,2.9c0.2,0,0.1,0.2,0,0.3c0.1,0.1,0.1,0.1,0.2,0.1c0,0,0.1,0,0.1,0
	c0,0,0.1,0,0.1,0C5.9,3.2,5.5,3,5.5,3c0.1,0,0,0,0.1,0c0.1,0,0.2-0.1,0.1-0.2c0.2,0,0-0.2-0.1-0.2c0.1,0,0.2,0,0.4,0
	c0,0,0,0-0.1-0.1c0.1,0,0.2,0.1,0.3,0.2c0,0,0.1,0.1,0.1,0.2c0,0.1-0.2,0.1-0.1,0.2C6.2,3,5.9,3,5.9,3.1c0,0.1,0.2,0,0.2,0
	c0.1,0,0.2,0.1,0.2,0.2c0.1,0.1,0.2,0.1,0.3,0.1c0-0.1-0.1-0.1-0.2-0.2c0.1,0,0.2,0.1,0.3,0.1c0,0,0-0.1,0-0.1
	C6.8,3.1,6.7,3,6.6,2.9c0.1-0.1,0.1,0,0.2,0C6.9,3,6.8,3,6.9,3C6.9,3,7,2.9,7,2.9c0-0.1,0,0,0-0.1C7,2.8,6.5,2.6,6.7,2.6
	c0,0-0.1,0-0.1,0c0,0,0,0,0,0c0,0-0.1,0-0.1-0.1c0,0,0,0,0,0c-0.1,0-0.1,0-0.2-0.1c0,0,0,0,0,0c-0.2,0-0.2-0.1-0.3-0.1
	C6,2.1,5.8,2.2,5.8,2.2c-0.1,0,0-0.1,0-0.1C5.7,2,5.7,2,5.6,2c-0.2,0-0.2,0.2-0.1,0.3c-0.2,0-0.2-0.2,0-0.3C5.4,2,5.2,2,5.2,2.2
	C5.1,2.4,5.3,2.3,5.3,2.4c-0.1,0-0.1,0-0.1,0c0,0.1,0.2,0.1,0.3,0.1c-0.1,0-0.1,0.4-0.2,0.3c-0.1,0,0-0.1,0-0.1
	c-0.1-0.1-0.1,0-0.1,0c0,0-0.1,0-0.2-0.1C5,2.4,5,2.2,4.8,2.3C4.6,2.4,5,2.6,4.8,2.6c0,0.1,0.1,0.1,0.2,0c0,0.1-0.2,0.1-0.1,0.2
	c-0.1-0.1-0.1,0-0.1-0.1c-0.1,0,0,0-0.1-0.1c0,0,0,0,0,0c0-0.1,0-0.1-0.1-0.1c0,0-0.1,0.1-0.1,0.1c0,0,0.1,0.1,0.1,0.1
	C4.6,2.8,4.4,2.7,4.3,2.7c-0.1,0-0.1-0.1-0.2,0C3.9,2.7,4,2.8,4,2.9C3.9,2.7,3.7,2.7,3.5,2.7c0,0,0,0,0.1-0.1
	C3.5,2.6,3.2,2.5,3.1,2.5c-0.1,0-0.2,0.1-0.3,0c0,0.1-0.1,0-0.1,0c0,0,0-0.1-0.1-0.1c-0.1,0,0,0-0.1,0c-0.1,0-0.2,0.1-0.3,0.1
	c0.1-0.1,0.2-0.1,0.2-0.1c-0.1,0-0.3,0.1-0.4,0.1c-0.2,0-0.3,0-0.5-0.1c-0.2,0-0.3,0-0.4-0.1C1.1,2.4,1,2.4,0.8,2.4c0,0,0,0,0,0
	c-0.1,0-0.2,0-0.3,0.1c-0.1,0-0.1,0.1-0.2,0.2C0.1,2.7,0,2.6,0.2,2.7c0.1,0.1,0.2,0.1,0.3,0.2c-0.1,0-0.2,0-0.2-0.1
	C0.2,2.9,0.1,2.9,0,3c0.1,0,0.1,0.1,0.2,0.1c0.1,0,0.2,0,0.3,0c0,0.3-0.3,0.1-0.3,0.3c0,0.1,0.1,0.3,0.2,0.2c0,0,0.1,0.1,0,0.2
	c0.1,0,0.2,0,0.2,0c0,0,0.1,0,0.1,0C0.7,4,0.3,3.9,0.2,4.1C0.4,4.1,0.8,3.8,1,3.7c0,0,0-0.1-0.1-0.1C1,3.6,1.1,3.4,1.3,3.5
	c-0.2,0-0.2,0-0.2,0.1C1.2,3.6,1.2,3.6,1.3,3.5C1.3,3.5,1.3,3.5,1.3,3.5z M1,3.8C1,3.8,1,3.7,1,3.8c-0.1,0-0.2,0-0.1,0.1
	C0.9,3.9,1,3.8,1,3.8z"/>
<path class="st0" d="M18.7,1.2l0,0.4l0,0.1l1.6,0L22,2L22.9,2l0.4,0.3l0.5,0.1l0.1,0.4v0.2h-0.3l-1.3,0c0,0-1.2,0.1-1.3,0.1
	s-2.2-0.7-2.2-0.7c0,0-0.8-0.7-0.8-0.7L18.3,1L18.7,1.2z"/>
<path class="st0" d="M21.6,4.3l-0.3,0.2c0,0-0.2,0.4-0.2,0.4c0,0-0.6,0.3-0.6,0.3l-0.2,0.4l-0.5,0.2l-0.2-0.1l0.1-0.5
	c0,0,0.1-0.9,0.1-1C19.7,4,20.3,3,20.3,3s1-0.4,1.1-0.5c0.1-0.1,1.2,0.1,1.2,0.1l-0.3,0.5L21.6,4.3z"/>
<path class="st0" d="M14.5,6.5v0.9c0,0-0.2,0.4-0.3,0.4c-0.1,0-0.6-0.2-0.6-0.2c0,0,0-0.6,0-0.6L14.5,6.5z"/>
<polygon class="st0" points="21,10.6 21,10.9 20.9,11.2 20.7,11 20.7,10.7 20.8,10.5 "/>
<polygon class="st0" points="17.4,6.6 17.5,7.2 17.5,7.8 17.6,8 18.1,8.3 18.5,7.9 "/>
<polygon class="st0" points="5.7,7.4 5.7,7.5 5.7,8.1 5.9,8.3 6.4,8.2 6.4,7.9 5.9,7.3 "/>
<path class="st0" d="M0.3,3.3L0.2,3.5L0.2,4c0,0,0.4-0.2,0.5-0.3s0.2-0.2,0.2-0.2L0.3,3.3z"/>
<path class="st0" d="M7.2,1.5L7,2.3L6.8,2.8l0.3,0.1L7,3.5c0,0-0.3,0-0.4,0c-0.1,0-0.4-0.7-0.4-0.7l0-1.2L7.2,1.5z"/>
<path class="st0" d="M14.5,6.8l0,0.7l-0.7,0.8v0.8c0,0-0.2,0.3-0.2,0.3c-0.1,0-0.4-0.6-0.4-0.6s0.3-1.1,0.4-1.1
	C13.5,7.6,14.5,6.8,14.5,6.8L14.5,6.8z"/>
<polygon class="st0" points="11.7,7.5 11.7,8.2 12,8.4 12,8.6 11.9,8.6 11.9,9.2 12.1,9.5 12.4,8.8 12.4,7.9 "/>
<path class="st0" d="M19.6,5.3l-0.4,0.1c0,0-0.1,0.2-0.1,0.3s0,0.2,0,0.2l0,0.3l0,0.3l0,0.3l0.2,0.2l0,0.1l0,0.4l0.2,0l0.2,0.2
	l0.2,0l0.1,0.1l0.4,0.1l0.3,0.3l0.3,0.1l0,0.8L20,9.1l-0.8-0.4l-0.4-0.1l-0.6-0.1l-0.1-0.2l-0.2-0.3l-0.1-0.7l-0.1-0.8
	c0,0,0.1-0.7,0.1-0.8c0-0.1,1-0.9,1-0.9L19.6,5.3z"/>
<polygon class="st0" points="18.9,9 18.7,9.1 18.7,9.3 18.7,9.8 20.7,10.2 21.3,10.2 21.3,9.4 20.4,9.3 "/>
<polygon class="st0" points="22.9,10.2 23,10.2 22.9,10.8 22.8,11 22.6,11.2 22.3,11.4 22.3,10.8 22.6,10.5 22.7,10.3 "/>
<polygon class="st0" points="15.7,1.1 15.7,1.4 15.3,2.4 13.4,3.1 13.1,2.5 14,2.5 14,2.1 14.2,2.2 14.2,2.3 14.3,2.3 14.3,2 
	14.5,2 14.5,2.2 14.6,2.1 14.6,1.7 14.8,1.5 15.1,1.2 "/>
<polygon class="st0" points="13.5,2.1 13.8,2.2 14,2.6 13.9,2.8 13.4,2.7 13.3,2.3 "/>
<path class="st0" d="M10.1,6.1L10,6.2l0,0.6l0.1,0c0,0,0,0.3,0,0.4c0,0,0.3,0.2,0.3,0.2s0.1-0.7,0.1-0.7L10.1,6.1z"/>
<path class="st0" d="M6.2,6.2v0.3l0,0.1c0,0-0.1,0-0.2,0c0,0,0,0.1-0.1,0.1S5.9,6.7,5.9,6.8c0,0,0,0.1,0,0.1l0,0.1l0,0.1
	c0,0-0.3-0.1-0.4-0.1S5.2,6.4,5.2,6.4L5.3,6L5.6,6L6.2,6.2z"/>
<path class="st0" d="M6.8,11.6l0,0.5c0,0-0.2-0.1-0.2-0.1c0,0-0.1-0.1-0.1-0.2c0-0.1,0-0.3,0-0.3l0-0.2L6.8,11.6z"/>
<path class="st0" d="M9.7,0.2v0.3l0.6-0.1l0,0.1l0,0.5c0,0-0.7,0.2-0.8,0.2s-0.3,0-0.3,0L8.7,0.4l0.4-0.2H9.7z"/>
<path class="st0" d="M9.7,1.1l0,0.2l0.2,0.1l0,0.2L9.8,1.7l0,0.2L9.5,2.2c0,0-1.5,1-1.5,1c0,0-0.5-0.3-0.5-0.3L7.6,2.8l0-0.3V2.2
	c0,0,0-0.2,0-0.2c0,0,0-0.4,0.1-0.4c0-0.1,1.2-0.5,1.2-0.5L9.7,1.1z"/>
<path class="st1" d="M5.8,2.8C6,2.6,5.8,3,5.8,2.8L5.8,2.8z M5.6,2.8C5.7,2.8,5.7,2.8,5.6,2.8C5.7,2.7,5.5,2.8,5.6,2.8z M6,1.6
	c0,0,0.1-0.1,0.1-0.1C6,1.4,5.9,1.5,5.8,1.5C5.8,1.6,5.9,1.6,6,1.6z M20.7,10.4c0,0.1,0.1,0.2,0.2,0.2c0,0,0,0,0,0c0,0,0,0,0.1,0
	c0-0.1,0-0.1,0-0.1C20.9,10.5,20.7,10.4,20.7,10.4C20.7,10.5,20.7,10.4,20.7,10.4z M21,10.3C21,10.4,21,10.4,21,10.3
	C21,10.4,21,10.3,21,10.3C21,10.4,21,10.3,21,10.3z M20.7,10.3C20.7,10.3,20.7,10.4,20.7,10.3C20.7,10.4,20.7,10.3,20.7,10.3
	C20.7,10.3,20.7,10.3,20.7,10.3z M22.4,10.9c0.1,0,0.1-0.2,0.3-0.2c-0.1-0.1,0.2-0.1,0-0.2c-0.1-0.1-0.1,0.1-0.2,0.1
	c-0.1,0.1-0.2,0.1-0.2,0.2C22.2,10.8,22.2,10.9,22.4,10.9C22.4,10.9,22.4,10.9,22.4,10.9z M22.3,10.9C22.3,10.9,22.3,10.9,22.3,10.9
	C22.3,11,22.3,11,22.3,10.9C22.3,10.9,22.3,10.9,22.3,10.9C22.3,10.9,22.3,10.9,22.3,10.9z M22.7,10.2c0,0,0,0.1,0,0.1
	c0,0-0.1,0-0.1,0c0,0.1,0,0,0,0c0,0,0.1,0.1,0.1,0.1c0,0,0-0.1,0.1-0.1c0.1-0.1,0.2-0.2,0-0.2C22.8,10.2,22.8,10.1,22.7,10.2
	c0,0,0-0.1,0-0.2C22.6,9.9,22.7,10.1,22.7,10.2z M19.8,8.3C19.7,8.3,19.8,8.3,19.8,8.3C19.9,8.3,19.9,8.3,19.8,8.3
	C19.8,8.3,19.8,8.3,19.8,8.3z M20.6,8.3c-0.1,0.1,0,0.4-0.2,0.4c0,0-0.2-0.1-0.2-0.1c0-0.1,0-0.1,0.1-0.2c-0.1,0-0.2-0.1-0.3-0.1
	c0,0,0,0,0.1,0.1c0,0-0.1,0.1-0.2,0.1c-0.1,0.1,0.1,0.1-0.1,0.1c-0.1,0-0.1-0.1-0.2,0c-0.1,0-0.1,0.1-0.2,0.1c0,0,0,0.1,0,0.1
	c0,0,0,0-0.1,0c0,0,0,0,0,0c-0.1,0-0.1,0.2-0.2,0.2C19,9,18.9,9,18.8,9c0,0-0.1,0.1-0.1,0c0,0.1,0,0.2,0,0.3c-0.1-0.1,0,0.2,0,0.2
	c0.1,0.2,0.1,0.3,0,0.4c0.1,0,0.1,0.1,0.2,0.1c0.1,0,0.1-0.1,0.2-0.1c0.1,0,0.1,0,0.2,0c0,0,0-0.1,0.1-0.1c0,0,0.1-0.1,0.1-0.1
	c0,0,0.1,0,0.1,0c0.1,0,0.3-0.1,0.4,0c0.1,0,0.2,0.4,0.3,0.1c0.1,0,0,0.1,0,0.1c0.1,0,0.1,0,0,0.1c0.1,0,0.1,0.1,0.2,0.2
	c0,0,0.1,0,0.2,0c0.1,0,0-0.1,0.1-0.1c0,0,0,0.1,0.1,0.1c0.1,0,0.3-0.1,0.3-0.2c0-0.1,0-0.2,0.1-0.3c0.1-0.2,0.1-0.4,0-0.6
	c0,0,0-0.1-0.1-0.1c0,0,0-0.1,0-0.1c0,0-0.1,0-0.1,0c0,0,0-0.1,0-0.1c0,0-0.1-0.1-0.1-0.1c-0.1-0.1-0.1-0.2-0.1-0.3
	c0,0-0.1,0-0.1-0.1C20.6,8.4,20.6,8.3,20.6,8.3C20.6,8.3,20.6,8.3,20.6,8.3z M19.8,8.1C19.8,8.1,19.9,8.1,19.8,8.1
	C19.9,8,19.8,8.1,19.8,8.1z M20.1,7.9C20,7.9,20,8,20.1,7.9C20,8.1,20.2,7.9,20.1,7.9z M20,7.8c0.1,0,0.1,0,0.2,0.1
	c0.1,0,0.1,0,0.1,0.1c0,0.1,0,0.1,0,0.1c0,0-0.1,0,0,0.1c0,0,0.1,0,0.1,0c0.1,0,0.1,0.1,0.2,0.1c0.1,0,0.1-0.1,0.2-0.1
	c0,0,0.1,0.1,0.1,0.1c0.1,0,0,0,0.1,0.1c0.2,0,0.1,0,0-0.1c0,0-0.1,0-0.1,0c0,0,0-0.1,0-0.1c0,0-0.1-0.1,0-0.1c0,0-0.1-0.1-0.2-0.2
	c-0.1-0.1-0.2-0.1-0.3-0.1c-0.2-0.1-0.2,0-0.3,0C20.1,7.8,20,7.7,20,7.8C19.9,7.8,20,7.8,20,7.8C20,7.8,20,7.8,20,7.8z M20.1,7.6
	C20.1,7.6,20.1,7.7,20.1,7.6C20.2,7.7,20.2,7.7,20.1,7.6C20.2,7.7,20.2,7.7,20.1,7.6C20.2,7.6,20.2,7.6,20.1,7.6
	C20.1,7.6,20.2,7.6,20.1,7.6z M19.8,7.6C19.8,7.6,19.8,7.6,19.8,7.6c0,0.1,0.1,0.1,0.2,0.1C20,7.5,19.9,7.6,19.8,7.6z M19.8,7.6
	C19.9,7.5,19.7,7.6,19.8,7.6C19.8,7.6,19.8,7.6,19.8,7.6z M19.8,7.7C19.8,7.7,19.8,7.8,19.8,7.7C19.8,7.7,19.8,7.7,19.8,7.7z
	 M19.7,7.4c0,0.1-0.1,0.1-0.1,0.2c0,0.1,0,0,0.1,0C19.7,7.5,19.7,7.5,19.7,7.4C19.7,7.4,19.7,7.4,19.7,7.4
	C19.7,7.4,19.7,7.4,19.7,7.4z M19,7.8C19,7.8,19.1,7.9,19,7.8c0.1,0.1,0.1,0.2,0.1,0.2c0,0,0-0.1,0-0.2c0,0,0,0,0,0
	c0,0,0.1,0.2,0.1,0.2c0.1,0,0-0.2-0.1-0.2C19.5,7.7,19,7.5,19,7.8z M19.4,7.5c-0.1,0-0.4,0-0.3,0.1c0.1,0,0.1,0,0.2-0.1
	C19.3,7.5,19.3,7.5,19.4,7.5C19.4,7.5,19.5,7.4,19.4,7.5C19.4,7.5,19.4,7.5,19.4,7.5z M19.3,8.2c0,0.1,0.2-0.1,0.3-0.1
	C19.5,8.1,19.4,8.2,19.3,8.2z M19.1,8.1c0.1,0.1,0.3,0,0.3,0C19.4,8.1,19.1,8.1,19.1,8.1z M19.1,8.2c-0.1,0,0.1,0.1,0.1,0.1
	C19.2,8.2,19.1,8.2,19.1,8.2C19.1,8.2,19.1,8.2,19.1,8.2z M18.9,8.1c0,0,0.1,0,0.2,0c0,0,0,0,0,0C19,8.1,19,8.1,18.9,8.1
	C18.9,8.1,18.9,8.1,18.9,8.1z M18.1,8c0.1,0.1,0.2,0.1,0.3,0.1c0.1,0,0.2,0.1,0.4,0.1c0-0.1-0.1-0.1-0.2-0.1c0,0,0,0,0.1,0
	C18.5,8,18.4,8,18.1,8z M18.4,7.4c-0.1,0.1,0,0.2,0,0.2c0.1,0.1,0.1,0.1,0.3,0.1c0.1,0,0.1,0.1,0.2-0.1c0,0,0-0.1,0-0.1
	c0,0,0.1-0.1,0.1-0.1c-0.1-0.1-0.1-0.1-0.1-0.2c0.1,0,0,0,0.1-0.1c0,0-0.2-0.1-0.2-0.1c-0.1,0-0.1,0.1-0.1,0.1
	C18.7,7.3,18.5,7.5,18.4,7.4z M17.7,7.6c0,0,0.1,0.2,0.1,0.2C17.8,7.7,17.7,7.6,17.7,7.6C17.7,7.6,17.7,7.6,17.7,7.6z M17.6,7.5
	C17.6,7.5,17.6,7.5,17.6,7.5C17.7,7.5,17.6,7.5,17.6,7.5C17.6,7.5,17.6,7.5,17.6,7.5z M17.6,7.2C17.5,7.2,17.5,7.2,17.6,7.2
	c-0.1,0,0,0.1,0.1,0.2c0.1,0.1,0.1,0.2,0.2,0.3c0,0.1,0.2,0.2,0.2,0.2c0.1,0,0.1-0.1,0.2-0.2c0-0.1-0.1-0.1-0.2-0.1
	C18.1,7.6,17.7,7.2,17.6,7.2C17.6,7.2,17.6,7.2,17.6,7.2z M19.4,7c-0.1,0-0.1,0.1-0.1,0.1c0.1-0.1,0.1,0,0.2,0.1c0-0.1,0-0.1,0-0.1
	c0,0,0-0.2,0-0.2C19.4,6.9,19.4,7,19.4,7C19.3,7,19.4,7,19.4,7z M19.1,6.7c0,0,0.1,0.2,0.1,0.2c0,0.1,0.1,0.1,0,0
	C19.3,6.8,19.2,6.7,19.1,6.7C19.1,6.7,19.2,6.7,19.1,6.7z M19.2,6.7c0.1,0.1,0.1,0.2,0.2,0.2c0-0.1-0.1-0.1-0.1-0.2
	C19.3,6.6,19.3,6.7,19.2,6.7C19.3,6.7,19.3,6.7,19.2,6.7z M19.1,6.7c-0.1,0.1-0.2,0.2-0.2,0.3C19,7,19.1,6.8,19.1,6.7
	C19.1,6.7,19.1,6.7,19.1,6.7z M19.2,6.3c-0.1,0.1-0.1,0.3,0,0.3C19.2,6.5,19.4,6.3,19.2,6.3z M19.2,5.9c0,0-0.1,0.1-0.1,0.2
	c0,0,0,0,0,0C19.2,6,19.2,6,19.2,5.9z M21,4.3c-0.1,0-0.1,0.1-0.2,0.1c-0.1,0-0.1,0-0.3-0.1c0,0,0,0.3-0.1,0.2c0,0-0.1,0.2,0,0.1
	c0,0,0,0,0,0c-0.1,0-0.1,0.2-0.2,0.3c0,0,0,0,0-0.1c0,0-0.1,0.1-0.1,0.1c0,0,0,0,0,0c0,0-0.1,0.1-0.1,0.1C20,5,19.8,5.2,19.7,5.3
	c0,0,0.1,0,0.1,0c0,0.1-0.1,0.1,0,0.1c0-0.1,0.1-0.2,0-0.2c0-0.1,0.2-0.1,0.3-0.1c-0.1,0-0.2,0-0.2,0.1c0.1,0,0.1-0.1,0.2-0.1
	c0,0.1,0.1,0,0.1,0c0.3,0,0.2,0,0.3-0.3c0-0.1,0.1-0.2,0-0.3c0.1,0,0.2,0.1,0.2,0C20.7,4.5,21,4.4,21,4.3C21,4.3,21,4.3,21,4.3z
	 M21.1,4.3C21.1,4.3,21.1,4.3,21.1,4.3C21.1,4.3,21.1,4.3,21.1,4.3C21.1,4.3,21.1,4.3,21.1,4.3z M22.3,3.5
	C22.3,3.5,22.3,3.5,22.3,3.5C22.3,3.5,22.3,3.5,22.3,3.5C22.3,3.5,22.3,3.5,22.3,3.5z M22,3.2C22.1,3.2,22.1,3.1,22,3.2
	C22,3.1,22,3.1,22,3.2C22,3.2,22,3.2,22,3.2z M23.6,2.7c0.1,0,0.1,0,0.2,0C23.8,2.6,23.7,2.7,23.6,2.7C23.6,2.7,23.6,2.7,23.6,2.7z
	 M17.5,1C17.5,1,17.5,1,17.5,1C17.5,1,17.5,1,17.5,1z M14.5,2c-0.1,0-0.2-0.1-0.1,0.1C14.4,2.1,14.5,2.1,14.5,2
	C14.5,2,14.5,2,14.5,2z M14.7,1.5c-0.1,0-0.2,0.2-0.2,0.2c0,0,0.1,0,0.1,0c0,0,0,0,0,0c0.1,0,0,0.1,0.1,0.1c0.1,0,0.2,0,0.2,0
	c0-0.1-0.1-0.1-0.1-0.2c0-0.1,0.1-0.2,0.1-0.2c0.1-0.1,0.3-0.2,0.5-0.3c0.1,0,0.3-0.1,0.3-0.1c0-0.1-0.2,0-0.2,0
	c-0.1,0-0.5,0.1-0.5,0.2c0,0,0,0-0.1,0C14.9,1.4,14.7,1.4,14.7,1.5C14.7,1.5,14.7,1.5,14.7,1.5C14.8,1.5,14.8,1.5,14.7,1.5
	C14.7,1.5,14.7,1.5,14.7,1.5z M15.8,1.5C15.8,1.5,15.9,1.5,15.8,1.5C15.9,1.5,15.7,1.5,15.8,1.5z M20.8,3.1C21,3.1,21,3,21.2,3
	c0.1,0,0,0.1,0.1,0.1c0.1,0,0.1-0.1,0.2,0c0,0,0,0,0.1,0c0-0.1-0.1,0,0-0.1c0,0,0.1-0.1,0.1-0.1c0.1-0.1,0.2,0,0.2,0.1
	c0.2,0,0.2-0.2,0.3-0.2C22,2.8,22,2.9,21.9,3c-0.1,0.1-0.3,0.2-0.4,0.3c0,0.1,0,0.3,0,0.4c0,0.1,0,0.2,0.1,0.1
	c0.1-0.1,0.1-0.3,0.3-0.3c0-0.1,0-0.2,0.1-0.1c0-0.1,0-0.1,0-0.2c0,0,0,0-0.1,0c0,0,0.1-0.2,0.1-0.2C22,3,22,3,22.1,3c0,0,0,0,0.1,0
	c0,0,0-0.1,0.1-0.1c0,0,0.1,0,0.1,0c0.1,0,0,0.1,0.1,0.1c0-0.2,0.4-0.3,0.5-0.3c0.1,0,0.1,0.1,0.1-0.1c0-0.1-0.1-0.1-0.2-0.1
	c0,0,0.2,0,0.2,0c0.1,0,0.1-0.1,0.1-0.1c0.1,0,0.1,0.1,0.1,0.1c0,0,0.1,0,0.1,0c0.1,0,0.1,0.1,0.1,0.1c0.1,0,0,0,0.1,0
	c0.1,0,0-0.1,0-0.1c0,0,0.2,0.1,0.1-0.1c0,0-0.2-0.1-0.3-0.1c0,0,0.1,0.1,0,0c0,0,0-0.1,0-0.1c0,0-0.1,0-0.1,0c0,0-0.1-0.1-0.1-0.1
	C23.2,2.1,23.1,2,23,2c-0.2-0.1-0.5-0.1-0.6,0c0.2,0.1-0.3,0.1,0,0c-0.1-0.1-0.1,0-0.2,0c-0.1,0-0.2,0-0.3,0c0,0,0,0.1,0,0.1
	c-0.1-0.1-0.1-0.3-0.3-0.3c-0.1,0-0.2,0-0.3,0c-0.1,0-0.1-0.1-0.2-0.1c0,0,0,0,0,0c-0.1-0.1-0.3,0.1-0.3,0c-0.1,0-0.1,0-0.2,0
	c-0.1,0-0.1,0-0.2,0c0,0.1,0.1,0.1,0.1,0.1c-0.1,0-0.1,0-0.2,0c0,0,0,0,0,0.1c-0.1,0-0.1-0.1-0.1-0.1c0,0-0.2,0-0.2,0
	c-0.1,0-0.1,0.1-0.1,0.1c0,0-0.1-0.1-0.1-0.1c0,0,0-0.1,0-0.2c-0.1-0.1-0.1,0-0.2,0c-0.1,0-0.2-0.1-0.2,0.1c-0.1,0-0.2,0-0.3,0
	c0,0-0.1-0.1-0.1-0.1c-0.1,0-0.2,0-0.3,0c0,0,0,0,0-0.1c0,0-0.1,0-0.1,0c0,0,0.2-0.1,0.1-0.1c-0.1,0-0.1,0.1-0.2,0.1
	c0,0.1-0.1,0.1-0.2,0.1c0.1,0,0.5-0.2,0.5-0.3c0-0.2-0.4-0.2-0.4-0.2c0,0,0,0,0-0.1c-0.1,0-0.1,0-0.2,0c0,0,0-0.1,0.1-0.1
	C18,0.9,18,1,17.8,1.1c0,0,0,0,0,0c-0.1,0-0.1,0.1-0.3,0.1c0,0-0.1,0-0.2,0c0,0-0.1,0.1-0.2,0.1c-0.1,0-0.1,0-0.2,0
	c0,0-0.1,0.1-0.2,0.1c-0.1,0.1,0.1,0,0,0.1c-0.1,0.1-0.3,0-0.4,0.1c0,0.1,0.2,0.2,0.1,0.2c0,0-0.1-0.1-0.1-0.1c-0.1,0-0.1,0-0.2,0
	c0,0,0.1,0,0.1,0.1c-0.3,0,0,0,0,0.1c0-0.1-0.2,0-0.2-0.1c0,0,0-0.1,0-0.2c0,0,0,0,0,0c0,0.1-0.1,0.1-0.1,0.2c0,0,0,0.2,0,0.2
	c0.1,0.1,0.1,0,0.1,0c0.1,0,0.1,0.1,0.1,0.2c0,0,0.1,0,0.1,0c-0.1,0.1-0.1-0.3-0.3-0.1c0,0,0,0.1,0,0.1c0,0-0.1,0.1-0.1,0.1
	c-0.1,0.1-0.1,0-0.2,0c0,0,0.1,0,0.2-0.1C16,2.2,16,2.2,16,2.1c-0.1,0-0.1-0.3-0.1-0.4c0,0,0,0,0,0c0-0.1-0.2-0.1-0.3-0.1
	c0,0-0.1,0.2-0.1,0.2c0-0.1,0,0.2,0,0.1c0,0,0.1,0,0.1,0.1c0,0,0.1,0,0.1,0.1c0,0.1-0.1,0-0.1,0C15.5,2,15.4,2,15.3,2
	c-0.1,0-0.2-0.1-0.3-0.1c-0.1,0,0.2,0.2,0,0.3c0-0.2-0.4,0.1-0.3-0.1c-0.1,0.1-0.2,0.1-0.3,0.1c0,0-0.3,0.2-0.2,0
	c0.2,0,0-0.1-0.1-0.1c0,0,0.1,0.3,0,0.3c0,0-0.1,0-0.1,0c0,0-0.1,0.1-0.1,0.1c0,0,0.1,0.1,0,0.1c-0.1,0-0.2,0-0.2-0.1
	c-0.1,0.1,0.1,0.1,0.1,0.1c0,0-0.1,0-0.1,0c-0.1-0.1-0.1,0-0.1-0.1c0-0.1-0.1-0.2-0.2-0.2c0.1,0,0.7,0.3,0.6,0
	c0-0.1-0.2-0.1-0.2-0.2c-0.1,0-0.2,0-0.3,0c0.1-0.1-0.2-0.1-0.2-0.1c0.1,0,0,0,0-0.1c-0.1-0.1-0.1,0-0.1,0c0,0,0-0.1,0-0.1
	c0,0-0.1,0-0.1,0c0,0,0,0.1,0,0.1c0,0,0,0-0.1-0.1c0,0.1,0,0.1,0,0c0,0,0,0,0,0c0,0,0,0,0,0c0,0-0.2,0.1-0.1,0
	c-0.1,0-0.1,0.1-0.1,0.1c0,0-0.1,0-0.1,0c0,0,0,0.1,0,0.1c0,0-0.1-0.1-0.1-0.1c0,0.1,0,0.2-0.1,0.1c-0.1,0.1,0,0,0,0.1
	c-0.1,0-0.1,0-0.1-0.1c0,0,0,0-0.1,0.1c0,0,0,0,0,0c-0.1,0-0.1,0-0.1,0.1c0.1,0,0.2-0.1,0.3-0.1c-0.1,0-0.3,0.2-0.3,0.3
	c0,0-0.1,0-0.1,0.1c0,0,0,0,0.1,0c0,0.1-0.2,0.1-0.2,0.1c0,0,0,0,0,0.1c-0.2,0-0.2,0.1-0.3,0.3c0.2,0-0.1,0.1,0.1,0.1c0,0,0,0,0,0.1
	c0.2,0,0.2,0,0.3-0.1c0.1,0,0.1,0.3,0.2,0.3c0,0,0,0.1,0,0.1c0.1,0,0.1,0,0.1,0c0.1,0,0.1-0.1,0.2-0.1c0,0,0,0,0,0c0,0,0,0-0.1,0
	c0,0,0.1-0.1,0.1-0.2c0-0.1,0.1-0.1,0-0.1c0-0.1-0.1-0.2,0-0.3c0-0.1,0.1-0.1,0.2-0.1c0,0,0-0.1,0.1-0.2c0.1,0,0.2,0,0.2,0.1
	c0,0.1-0.4,0.2-0.2,0.4c0.1,0.2,0.4,0,0.6,0.1C13,3.1,12.9,3,12.8,3.1c0,0-0.2,0.1-0.2,0.1c0,0,0,0,0,0c0,0-0.1,0-0.1,0
	c0,0.1,0.1,0,0.1,0c0,0,0.1,0,0.1,0.1c-0.1,0.2-0.1,0-0.2,0c-0.1,0-0.1,0.2-0.1,0.3c-0.1,0-0.2,0-0.1,0.1c-0.1-0.1-0.2,0-0.3,0
	c0,0-0.2-0.1-0.2,0c0,0-0.1,0-0.1,0c0-0.1,0.2,0.1,0.2-0.2c0,0-0.1,0-0.1,0c0,0,0-0.1,0-0.1c0,0,0,0,0,0c0-0.1,0-0.1-0.1,0
	c-0.1,0.1,0,0.1,0,0.2c0,0.2,0,0.1-0.1,0.1c-0.1,0-0.2,0.1-0.2,0.1c0.1,0.1-0.1,0.1-0.1,0.2c0,0-0.1,0.1-0.1,0.1c-0.1,0-0.1,0-0.1,0
	c0.1,0.2-0.1,0.1-0.2,0.1c-0.1,0.1,0,0,0,0.1c0,0,0.1,0.1,0.1,0.1c0.2,0.4-0.3,0.2-0.5,0.2c0,0.1,0,0.3,0,0.4c0,0.1,0,0,0.1,0.1
	c0.1,0,0.1,0,0.1,0.1c0,0,0,0,0,0C10.9,5,11,5,11.1,4.9c0,0,0,0,0.1,0c0,0,0-0.1,0-0.1c0,0,0-0.1,0-0.1c0,0,0.2-0.1,0.2-0.1
	c0,0,0-0.1,0-0.1c0,0,0.1,0,0.2,0c0,0,0.1-0.1,0.2-0.1c0.1,0,0.1,0.1,0.2,0.2c0.2,0.1,0.5,0.3,0,0.3c0.1,0.2,0.3,0,0.3-0.1
	c0,0,0,0-0.1,0c0,0,0,0,0,0c0,0,0.1,0,0.1,0c0-0.1-0.2-0.2-0.3-0.2c0-0.1-0.1-0.1-0.1-0.1c0-0.2,0.2,0,0.3,0.1
	c0.1,0.1,0.2,0.1,0.2,0.2c0,0,0.1,0.2,0.1,0.2c0,0,0,0-0.1,0c0,0.1,0.1,0.1,0.1,0c0,0.2,0.2,0,0.3,0c0,0,0,0-0.1,0c0,0,0,0,0,0
	c0,0-0.1-0.1-0.1-0.2c0,0,0.1,0,0.1,0c0,0,0,0,0,0C12.9,4.5,13,5.1,13,5.1c0,0,0-0.1,0-0.1c0.1,0.1,0.1,0,0.2,0c0,0,0.1,0,0.1,0
	c0,0,0.1,0.1,0.2,0c0,0,0,0,0-0.1c0.2,0,0.2,0.1,0.1,0.2c0,0.1-0.1,0.1-0.1,0.2c-0.1,0-0.1,0-0.2,0c0.1,0,0.1,0.3,0.2,0.2
	c0.1,0.2,0.2,0.4,0.3,0.5c0.1,0.1,0.2,0.2,0.2,0.3c0.1,0.2,0,0.3,0.2,0.3c0.1,0,0.2-0.1,0.3-0.1c0.1,0,0.2-0.1,0.2-0.1
	c0.1,0,0.2,0,0.2-0.1c0,0,0.1-0.1,0.1-0.1c0-0.1,0-0.1,0.1-0.1C15.1,6,15,6,15,6c-0.1-0.1,0-0.1-0.1,0c0,0,0-0.1-0.1-0.2
	c0,0,0,0.1-0.1,0.1c-0.1,0-0.4,0-0.1-0.1c0,0-0.2-0.1-0.2-0.1c0,0-0.1-0.1-0.1-0.2c0-0.2,0.1-0.1,0.1,0c0.1,0.1,0.2,0.1,0.3,0.2
	c0,0,0.1,0,0.1,0c0,0,0,0.1,0.1,0.1c0.1,0,0.2,0,0.3,0c0.2,0,0.2,0,0.3,0.1C15.7,6,15.7,6,15.8,6c-0.2,0,0,0.1,0.1,0.1
	c0.1,0,0-0.1,0.1,0c0,0.1,0,0.1,0,0.2c0,0.1,0.1,0.2,0.1,0.3c0,0.1,0.1,0.3,0.1,0.3c0.1,0,0.1,0,0.2-0.1c0-0.1,0-0.1,0-0.2
	c0,0,0-0.1,0-0.1c0-0.1,0,0,0.1-0.1c0.1-0.1,0.3-0.3,0.4-0.4c0,0,0.3-0.1,0.3-0.1c0,0,0.1,0.2,0.1,0.3c0.1,0,0,0.1,0.1,0.2
	c0.1,0,0.1-0.1,0.1,0c0.1,0,0.2,0.3,0.2,0.4c0,0.1-0.1,0.1,0,0.2c0,0.1,0.1,0.1,0.1,0.2c0,0.1,0.1,0.4,0.3,0.3C18,7.4,18,7.2,18,7.2
	c-0.1-0.1-0.2-0.1-0.2-0.2c0,0,0-0.2,0-0.2c0.1-0.1,0,0,0.1,0c0.1,0,0.1,0,0.1,0.1c0,0,0.1,0,0.1,0c0,0,0,0.1,0,0.1
	c0.1-0.1,0.2-0.1,0.2-0.2c0.1-0.1,0-0.3,0-0.4c-0.1-0.2-0.2-0.4,0.1-0.4c0,0.1-0.1,0.2-0.1,0.2c0.1,0.1,0.1-0.2,0.1-0.2
	c0.1,0,0.2,0,0.2-0.1c0.1,0,0.1,0,0.2-0.1c0.1-0.1,0.3-0.2,0.3-0.4c0-0.1,0,0,0-0.1c0,0,0,0,0-0.1c0-0.1-0.1-0.2-0.1-0.2
	c0-0.1,0.1-0.1,0.2-0.1c0-0.1,0,0-0.1-0.1c0,0,0,0.1-0.1,0.1c0-0.1-0.2,0-0.1-0.2c0,0,0.1-0.1,0.1-0.1c0.2-0.1,0.1-0.1,0,0.1
	c0,0,0.2-0.1,0.2-0.1c0.1,0,0,0.1,0,0.2c0.2-0.1,0.1,0.2,0.1,0.3c0.1,0,0.3-0.1,0.2-0.2c0-0.1-0.1-0.1-0.1-0.3c0,0,0.1,0,0.1,0
	c0,0,0-0.1,0-0.1c0,0,0.1-0.1,0.1-0.1c0,0,0.1,0,0.2,0c0.1,0,0.1,0,0.1-0.1c0.1-0.1,0.2-0.2,0.2-0.3c0.1-0.1,0-0.2,0.1-0.3
	c0.1-0.3,0.1,0.3,0.1,0.4c0,0,0,0,0.1-0.1c0,0,0,0.1,0.1,0.1c0-0.1-0.2-0.2,0-0.2c0,0-0.1-0.4-0.1-0.5c0,0,0,0,0,0
	c0,0.1,0,0.1,0,0.2c-0.1,0-0.1-0.1-0.2-0.2c0,0.1-0.1,0.1-0.1,0c0,0,0,0,0,0.1c-0.1,0,0,0,0-0.1c-0.1,0.1,0,0,0-0.1
	c0.1-0.1,0.1-0.1,0.2-0.2C20.5,3.1,20.6,3.1,20.8,3.1z M10.7,3.2C10.7,3.2,10.6,3.2,10.7,3.2C10.7,3.2,10.8,3.1,10.7,3.2
	C10.7,3.2,10.7,3.2,10.7,3.2z M10.8,3.9c0.1,0,0.1,0,0.2-0.1c0.1,0,0.1,0,0.2,0c0.1,0,0.1-0.1,0.1-0.2c0-0.1-0.1,0-0.1,0
	c0,0,0-0.1,0-0.1c0,0-0.1-0.1-0.1-0.1C11,3.4,11,3.4,11,3.4c0,0,0.2-0.2-0.1-0.1c0,0,0-0.1,0.1-0.1c-0.1-0.1-0.1,0-0.1,0.1
	c0,0-0.2,0.1,0,0.1c0,0-0.1,0.1,0,0.1c0,0,0.1,0,0.1,0c0,0.1,0.1,0.1,0.1,0.2c0.1,0.1-0.1,0-0.1,0.1c0,0,0,0,0.1,0
	c0,0-0.1,0.1-0.1,0.1c0,0,0.1,0,0.1,0C10.9,3.8,10.7,3.9,10.8,3.9z M10.7,3.6c0.2,0-0.2-0.2-0.2,0c-0.1,0-0.2,0.1-0.1,0.1
	c-0.2,0.2,0.1,0.1,0.2,0.1C10.7,3.7,10.7,3.6,10.7,3.6z M14.4,8.9c0-0.1,0.1-0.4-0.1-0.5c0,0-0.1,0.2-0.1,0.2
	c-0.1,0.1-0.1,0-0.2,0.1c0,0,0,0.2,0,0.2C14.1,9,14,9,14,9.1c0,0.1,0,0.3,0.2,0.3c0.1,0,0.1-0.1,0.1-0.2C14.3,9.1,14.3,8.9,14.4,8.9
	C14.4,8.9,14.4,8.9,14.4,8.9z M13.3,5.6c-0.1-0.2-0.1-0.1-0.3-0.1c-0.2,0-0.4-0.1-0.6-0.1c0,0.2,0,0.2-0.1,0.2c0,0-0.1,0-0.1,0
	c0,0-0.1,0-0.1,0c0,0,0,0,0-0.1c-0.1,0-0.2-0.1-0.3-0.1c-0.1-0.1,0.1-0.1,0-0.2c0,0,0,0,0.1,0c-0.1-0.1-0.2,0-0.3,0
	c-0.1,0-0.2,0-0.3,0c-0.1,0-0.1,0.1-0.3,0.1c-0.1,0-0.2-0.1-0.2,0.1c0,0-0.1,0-0.1,0c0,0.2-0.1,0.1-0.1,0.1c0,0.1,0,0.2-0.1,0.3
	c0,0-0.1,0.1-0.2,0.1c0,0-0.1,0.1-0.1,0.2c0,0.1-0.2,0.2-0.2,0.3c0,0,0.1,0,0.1,0c0,0,0,0,0,0.1c0,0.1,0,0.2,0,0.3
	c0,0.1,0,0.2,0.1,0.3c0.1,0.1,0.2,0.2,0.3,0.3c0,0,0.1,0.1,0.1,0.1c0.1,0,0.1,0,0.2,0c0.1,0,0.1,0,0.2,0c0.1,0,0.1,0,0.2-0.1
	c0.1,0,0.2,0,0.3,0c0.1,0,0.1,0.1,0.2,0.1c0.2,0,0.2,0,0.2,0.1c0,0.1,0,0.2-0.1,0.3c0.2,0.1,0.4,0.5,0.3,0.7c0,0.2-0.2,0.2-0.1,0.5
	c0.1,0.1,0.1,0.2,0.1,0.4c0,0.2,0.2,0.3,0.2,0.4c0,0.1,0,0.2,0,0.2c0.2,0.2,0.6,0,0.7-0.2c0.1-0.1,0.1-0.1,0.2-0.2
	c0-0.1,0-0.2,0-0.2c0,0,0.1-0.1,0.2-0.1c0.1-0.1,0-0.2,0-0.3c0-0.1,0.2-0.2,0.3-0.2c0.1-0.1,0.1-0.3,0.1-0.4c0-0.1-0.1-0.3-0.1-0.4
	c0.1-0.2,0.3-0.3,0.4-0.5c0.1-0.1,0.2-0.2,0.3-0.3c0-0.1,0.1-0.1,0.1-0.2c0-0.2,0-0.1-0.1-0.1c-0.2,0-0.3,0.1-0.4-0.1
	c-0.1-0.1-0.2-0.2-0.3-0.3c-0.1-0.1-0.1-0.3-0.2-0.4C13.5,5.9,13.4,5.7,13.3,5.6C13.3,5.5,13.3,5.6,13.3,5.6z M6.2,10.9
	C6.2,10.9,6.2,10.8,6.2,10.9c0,0-0.1,0-0.1,0c0,0,0.1,0.1,0.1,0.1c0,0,0,0,0,0c-0.2,0,0,0.2-0.1,0.3c0,0,0,0,0.1,0c0,0,0,0,0,0
	c0,0,0,0,0.1,0c0,0,0.1,0.2,0.2,0.2c0.1,0.1,0.3,0,0.4,0c0,0-0.2-0.1-0.2-0.2c0-0.1-0.1-0.3,0-0.3c0-0.1,0.2-0.2,0.1-0.2
	c0-0.1-0.2,0-0.1-0.2c0,0,0.1,0,0.1,0c0,0,0-0.1,0-0.1c0,0,0.1-0.2,0.1-0.1c0-0.1-0.1,0-0.1-0.2C7,10.5,7,10.4,7,10.3
	c0.1,0,0.3,0,0.4-0.1c0.1-0.1-0.1-0.1-0.1-0.2c0.2,0,0.2,0.1,0.3,0c0.1,0,0.1-0.2,0.2-0.2c0,0,0,0,0,0.1C7.9,9.6,7.9,9.4,8,9.3
	C8,9.2,8.1,9.2,8.2,9.1c0.1,0,0.2,0,0.3-0.2c0.1-0.2,0.1-0.4,0.1-0.5c0.1-0.1,0.2-0.2,0.2-0.3c0-0.1,0-0.1,0-0.1
	c0-0.1,0-0.1-0.1-0.1C8.6,7.8,8.5,7.8,8.4,7.8c-0.1,0-0.3,0-0.2,0c0,0-0.1-0.1-0.1-0.1c-0.1,0-0.1,0-0.2,0c0,0,0-0.1,0-0.1
	c0,0-0.1,0-0.1,0c0,0,0,0.1-0.1,0.1c0,0,0.1-0.2,0-0.2c0-0.2-0.2-0.2-0.3-0.3C7.3,7.1,7.1,7,7.1,6.9c-0.1,0-0.2,0-0.1,0
	c-0.1-0.1-0.2,0-0.2,0c-0.1,0-0.2-0.1-0.3-0.1c0,0.1,0,0.1-0.1,0.1c0,0,0,0.1,0,0.1c-0.1-0.1-0.1-0.2,0-0.2C6.3,6.7,6,6.9,6,7.1
	C6,7.2,6,7.2,6,7.4c0,0.1-0.2,0.2-0.2,0.2c0,0.1,0,0.1,0.1,0.1c0,0.1-0.2,0.1-0.1,0.3c0,0,0.1,0,0.1,0.1c0,0,0.1,0.1,0.1,0.1
	C6,8.3,6,8.4,6.1,8.5c0.1,0.1,0.2,0.1,0.3,0.2c0.2,0.1,0.1,0.4,0.1,0.6c0,0.1-0.1,0.2-0.1,0.3c0,0.1,0,0.3-0.1,0.4
	c-0.1,0.1-0.1,0.2-0.1,0.4c0,0,0,0.1,0,0.1c0,0,0,0,0,0.1c0,0.1,0.1-0.1,0.1-0.1C6.3,10.6,6.3,10.7,6.2,10.9c0-0.1,0-0.1,0-0.1
	C6.2,10.7,6.2,10.8,6.2,10.9z M6.1,6.4c0,0-0.1-0.1-0.1,0C6,6.4,6,6.4,6.1,6.4C6.1,6.4,6.1,6.4,6.1,6.4z M6.2,6.2
	C6.1,6.1,5.9,6.1,5.8,6C5.8,6,5.6,6,5.6,6c-0.1,0-0.1,0.1,0,0.1c0,0,0.1,0,0.1,0c0.1,0,0.1,0.1,0.1,0.1C5.9,6.2,6,6.2,6.2,6.2z
	 M7.4,3.8c0,0-0.2,0.3-0.2,0.3c0,0,0.1,0,0.2,0c0.1,0,0.1,0.1,0.2,0.1C7.7,4.1,7.6,4,7.4,4C7.4,4,7.5,3.8,7.4,3.8
	C7.4,3.8,7.4,3.8,7.4,3.8z M7,4C7,4,6.9,3.9,6.9,3.9C6.9,4,7,4.1,7,4C7,4,7,4,7,4z M9,2.1C9,2.1,9,2.1,9,2.1c0.2,0.1,0.2,0,0.3,0
	c0.1,0,0.3-0.1,0.3-0.2C9.5,2,9.2,1.8,9.5,1.8c0,0,0.1,0.2,0.2,0c0,0-0.1-0.2-0.2-0.2c0,0,0.2,0.1,0.1,0c0-0.1-0.1-0.1-0.1,0
	c0,0,0,0,0,0c0,0,0,0,0,0c0,0,0.2,0.1,0.2,0c0.1-0.1-0.1-0.1-0.1-0.1c0,0,0.2,0,0.2,0c0,0-0.2-0.1,0-0.1c0-0.1-0.2-0.1-0.1-0.2
	c0,0,0.1,0,0.1,0c0.1,0,0,0,0.1,0.1C9.9,1,10,1,9.8,1c0-0.1,0,0,0.1-0.1c0-0.1-0.2,0-0.2,0C9.6,0.8,10,0.6,10.1,0.5
	c-0.1,0-0.1,0-0.2,0c0.1,0,0.2,0,0.3-0.1c0,0,0.2,0,0.1-0.1c0,0-0.2,0-0.2,0c-0.1,0-0.2,0-0.3,0.1c-0.1,0-0.3,0.1-0.3,0.1
	c0.1-0.2,0.2-0.2,0-0.2c0,0.1-0.1,0.1-0.2,0.1c0-0.1,0.1,0,0.1-0.1c-0.1-0.1-0.4,0.1-0.5,0c0-0.1,0.6-0.1,0.8-0.1c0,0,0,0,0,0
	c-0.1,0-0.2,0-0.3,0c-0.2,0-0.3,0-0.5,0c0.1-0.1,0.3,0,0.5,0C9.4,0,8.7,0,8.6,0c-0.1,0,0,0.1-0.1,0.1c-0.1,0-0.1,0-0.2,0
	c-0.1,0-0.2,0-0.3,0c0,0,0.1,0,0.1,0.1c0,0-0.2-0.1-0.1,0c0,0,0.2,0.1,0.2,0.1C8,0.3,7.9,0.2,7.7,0.2c0,0,0.1,0.1,0.1,0.1
	c-0.1,0-0.2-0.1-0.3-0.1c0,0.1,0,0.2,0,0.1c0,0,0-0.1,0-0.1c-0.1,0-0.3,0.1-0.3,0.1c0,0,0.1,0,0.2,0.1c-0.1,0-0.1,0-0.2-0.1
	c0,0,0,0-0.1,0c-0.1,0,0,0.1,0,0.1c-0.1,0-0.2,0-0.3,0.1c0,0-0.1,0-0.1,0.1c0.1,0,0.1,0,0.1,0c0,0,0,0.1,0,0.1c0,0-0.1,0-0.1,0
	c-0.1,0-0.2,0-0.3,0.1C6.2,0.9,6.6,0.9,6.7,0.9C6.7,1,6.4,1,6.4,1c0,0,0.1,0.1,0.1,0.1c0,0,0,0,0,0c0,0,0.1,0.1,0.2,0.1c0,0,0,0,0,0
	c0.1,0,0.4,0,0.5,0c0.1,0.1,0.2,0.3,0.2,0.4c0,0,0,0,0,0c-0.1,0.2,0.2,0,0.3,0.3c-0.1,0-0.2-0.1-0.2,0C7.5,1.9,7.5,2,7.6,2
	c0.1,0,0.1-0.1,0-0.1c0.2,0,0.1,0,0.2,0.2c-0.1,0-0.1,0-0.1,0.1c-0.2,0,0,0.2,0,0.2c0,0,0.1,0,0.1,0c0,0-0.1,0,0,0.1
	c0,0,0,0.1,0,0.1c0,0,0.1,0,0.1,0c-0.1,0.1,0,0.3,0.1,0.4C8,2.9,8.2,3,8.3,3c0.1,0,0-0.2,0.1-0.2c0,0,0,0,0-0.1c0,0,0.1,0,0.1,0
	c0.1-0.1,0-0.3,0.2-0.3c0-0.1,0,0,0-0.1C8.6,2.6,9,2.1,9,2.1z M5.2,1c0.1,0.1,0.4,0.1,0.5,0.1C5.8,1.2,6,1.1,6,1c0,0,0,0-0.1,0
	c0,0,0,0,0-0.1C6,1,6,1,5.9,0.9c0.1,0,0.2,0,0.1-0.1c0,0,0.1,0,0.1,0c0-0.1-0.2-0.1-0.2,0c0,0,0,0,0,0c0.1-0.1,0.2,0,0.3-0.1
	c0,0,0,0-0.1,0c0.1,0,0.1,0,0.2,0c0,0,0,0-0.1-0.1c0.2,0,0.4-0.1,0.5-0.2c0,0-0.2,0-0.3,0c0.1-0.1,0.4,0,0.5-0.1
	c0-0.1-0.3-0.1-0.4-0.1c0,0-0.2-0.1-0.2-0.1C6.4,0.2,6,0,6,0.2c-0.1,0-0.3-0.1-0.4,0.1c0.1,0,0.2,0,0.2,0.1c-0.1,0-0.2-0.1-0.3-0.1
	c-0.1,0-0.1,0-0.2,0C5.3,0.3,5.1,0.3,5,0.3c0,0,0,0,0,0c0.1,0,0.1,0.1,0.2,0.1c0.1,0,0.1,0,0.3,0C5.3,0.5,5.6,0.5,5.7,0.5
	c0.1,0,0.2-0.1,0.4-0.1c-0.1,0-0.1,0-0.2,0.1c0.1,0,0.1,0,0.1,0C6,0.5,5.7,0.5,5.6,0.5c0,0,0,0,0,0c0.1,0,0.1,0.1,0.2,0.1
	c-0.1,0-0.3-0.1-0.4-0.1c0,0.1,0.2,0.2,0.3,0.2c0,0,0,0.1-0.1,0.1c-0.2-0.2-0.5,0.1-0.1,0c0,0,0,0-0.1,0c0,0.1,0.1,0,0.2,0
	c-0.1,0.2-0.3,0-0.4,0C5.3,1,5.3,1,5.2,1z M5.2,0.8C5.3,0.8,5.3,0.8,5.2,0.8c0.3,0,0.2-0.2,0.1-0.3c0,0-0.4-0.2-0.4-0.2
	c0,0,0.1,0,0.1,0c0,0-0.1,0-0.1,0c0,0,0,0,0,0.1c0,0-0.1,0-0.1,0c0,0,0,0.1,0,0.1c0.1,0.1,0.2,0,0.3,0.1c-0.1,0-0.1,0-0.2,0
	C5,0.8,5.1,0.9,5.2,0.8z M5.1,0.9C5,1,5,1,5.1,0.9C5.1,1,5.1,1,5.2,1C5.2,0.9,5.1,0.9,5.1,0.9z M5.1,1.4c0.1,0,0.8,0,0.7-0.1
	c-0.1-0.1-0.4,0-0.5,0C5.2,1.2,5.2,1,5,1.1C5,1.2,5,1.3,5.1,1.4z M4.6,1.4C4.6,1.4,4.7,1.4,4.6,1.4C4.7,1.3,4.7,1.4,4.6,1.4z
	 M4.7,1.3c0,0,0.2,0.1,0.2,0C4.9,1.2,4.8,1.2,4.7,1.3z M4.9,1.1C5,1.1,4.9,1,4.8,1C4.6,1,4.8,1.1,4.9,1.1z M4.8,1c0.1,0,0.1,0,0.2,0
	c0,0,0,0,0,0C4.9,0.9,4.8,0.9,4.8,1z M4.8,0.9c0.2,0-0.1-0.1-0.2-0.1C4.6,0.9,4.7,0.9,4.8,0.9z M4.6,0.6c0,0,0-0.1-0.1-0.1
	c0,0,0,0,0,0C4.5,0.6,4.5,0.6,4.6,0.6z M4.5,0.9c0.1-0.2-0.3-0.3-0.4-0.2c0,0,0.1,0.1,0.1,0.1c0,0,0,0-0.1,0
	C4.2,0.9,4.4,0.9,4.5,0.9z M4.4,0.9c0,0-0.1,0-0.1,0C4.3,1,4.4,0.9,4.4,0.9z M4.4,1.2c0.1,0,0.1,0,0.1,0.1c0.1,0,0.2,0,0.2-0.1
	c0-0.1-0.1-0.1-0.2-0.1c0,0,0.1,0.1,0.1,0.1c0,0-0.1-0.1-0.2-0.1C4.4,1.1,4.4,1.2,4.4,1.2C4.3,1.1,4.3,1.1,4.2,1
	C4.2,1.2,4.3,1.2,4.4,1.2z M4.2,1.3C4.2,1.3,4.3,1.3,4.2,1.3C4.3,1.2,4.2,1.3,4.2,1.3z M4.2,1c0,0-0.1-0.1-0.1-0.1
	C4.1,1,4.1,1,4.2,1z M6,2.2c0,0,0.2,0,0.1-0.1C6.1,2.1,6,2.1,6,2.2z M4.9,1.7C4.9,1.6,4.9,1.6,4.9,1.7c0.1,0,0.2-0.1,0.2-0.2
	c-0.1,0-0.2-0.1-0.3,0C4.8,1.5,4.8,1.7,4.9,1.7z M4.6,1.8c0.2,0,0.2-0.1,0-0.2c0.1,0,0-0.1,0-0.1c0,0-0.1,0-0.2,0
	c0.1,0.1,0,0.2-0.1,0.1C4.3,1.6,4.5,1.7,4.6,1.8z M4.2,1.5c0-0.1-0.1-0.1-0.1-0.1C4.1,1.5,4.1,1.6,4.2,1.5z M4,1.5
	C4,1.5,4,1.5,4,1.5L4,1.5z M3.6,0.8c0.1,0,0.2,0,0.2,0C3.8,0.7,3.7,0.8,3.6,0.8z M3.7,1C3.8,1,3.9,1,3.7,1c0.1-0.1,0.1-0.1,0.2-0.1
	C3.8,0.9,3.7,0.9,3.7,1C3.6,1,3.7,1,3.7,1z M3.6,0.9C3.6,0.9,3.5,0.8,3.6,0.9C3.5,0.9,3.5,0.9,3.6,0.9z M3.5,1.1
	c-0.1,0-0.2,0.1-0.1,0.2c0.1,0,0.3,0,0.4,0c0,0-0.2,0-0.2,0.1c0,0.1,0.1,0,0.2,0c0.1,0,0.4-0.1,0.4-0.2c0,0-0.2-0.1-0.2-0.1
	c-0.1,0-0.1,0-0.1,0.1c0,0,0.1,0,0.1,0C3.9,1.2,3.6,1.1,3.5,1.1z M3.5,1C3.5,1,3.6,1.1,3.5,1C3.6,1.1,3.6,1,3.5,1C3.6,1,3.6,1,3.5,1
	z M3.3,1.2C3.2,1.2,3.2,1.2,3.3,1.2C3.3,1.2,3.3,1.2,3.3,1.2C3.3,1.2,3.3,1.2,3.3,1.2z M3.4,1.1C3.4,1.1,3.4,1,3.5,1
	C3.2,0.9,3.2,1.1,3,1.1C3.1,1.3,3.2,1.1,3.4,1.1C3.3,1.1,3.3,1.1,3.4,1.1z M3.4,2c0.2,0,0.2,0.1,0.3,0.1C3.8,2.1,3.9,2,4,2
	C4.1,2,4.5,2.1,4.3,2c0.1,0,0.1,0,0.1,0C4.3,1.8,4.3,1.8,4.2,1.7c0,0-0.1-0.3-0.2-0.2c0,0.1,0.1,0.2,0,0.2c-0.1,0-0.1-0.2-0.2-0.2
	c0,0,0,0,0,0.1c0,0-0.1,0-0.1,0c0,0,0,0,0-0.1c-0.1,0-0.2,0-0.2,0c0-0.1-0.1-0.1-0.2,0C3.3,1.6,3.3,1.6,3.2,1.7c0.1,0,0.2,0,0.2,0
	c-0.1,0-0.1,0-0.2,0.1c0.1,0,0.3,0,0.4,0C3.7,1.9,3.4,1.9,3.4,2C3.4,2,3.4,2,3.4,2z M4,2.1c0.1,0,0.1,0,0.1-0.1C4,2.1,4,2.1,4,2.1
	C3.9,2.1,4,2.1,4,2.1z M3,1.8c0.1,0,0.2-0.1,0.3-0.2c0.2-0.1,0.2-0.1,0-0.2c-0.1,0-0.3-0.1-0.4,0c0,0,0,0.2-0.1,0.3
	C2.9,1.7,2.9,1.7,3,1.8C3,1.8,3,1.8,3,1.8z M0.1,3C0.1,2.9,0,3,0.1,3L0.1,3z M1.3,2.9c0-0.1,0.2,0,0.2,0c0.1,0,0.2,0,0.3,0
	C2,3.1,2.1,3.2,2.3,3.3c0,0,0,0.1,0.1,0.1c0,0,0.1,0,0.1,0.1c0.1,0.1,0.1,0.2,0.1,0.2c0.1,0.1,0.1,0.1,0.3,0.2C2.9,3.9,3,4,3,4.1
	C2.9,4,2.8,3.8,2.6,3.9C2.7,4,2.8,4,2.9,4.1c0.1,0.1,0,0.3,0,0.4C2.9,4.7,3,5,3.1,5.1c0.1,0.1,0.2,0.1,0.3,0.2
	c0.1,0.1,0.1,0.2,0.2,0.3c0,0,0,0,0,0.1c0,0,0.1,0.1,0.1,0.1c0,0,0.1,0.2,0.1,0.2c0.1-0.1-0.3-0.5-0.3-0.6c0.1,0,0.3,0.3,0.3,0.3
	C4,5.8,4.1,6,4.2,6.1C4,6.2,4.7,6.5,4.8,6.5c0,0,0.1,0,0.1,0C5,6.5,5,6.6,5,6.6c0.1,0,0.2,0.1,0.2,0.1c0.1,0.1,0.1,0.2,0.2,0.2
	C5.5,7,5.7,7,5.8,7.1C5.8,6.9,6,7.1,6,7c0-0.1-0.2,0-0.3-0.1c-0.2-0.1,0-0.2-0.1-0.4c-0.1-0.1-0.3,0-0.4-0.1c0.1-0.1,0.2-0.4,0-0.4
	c-0.2,0-0.1,0.1-0.2,0.2c-0.1,0.1-0.2,0-0.3,0C4.6,6.1,4.6,5.8,4.7,5.6c0.1-0.2,0.3,0,0.5-0.1c0-0.1,0.1-0.1,0.2-0.1
	c0,0,0.2,0,0.2,0c0.1,0,0.2,0.4,0.2,0.4c0.1,0-0.1-0.4,0-0.6C5.9,5.2,6,5.2,6.1,5.1c0-0.1,0-0.1,0-0.2c0.1,0,0,0,0.1,0
	c0,0,0.1-0.2,0.1-0.2c0,0,0.2,0,0.2-0.1C6.4,4.4,6.8,4.3,6.9,4.3c0,0-0.1,0-0.2,0.1c-0.1,0.1,0.1,0,0.1,0c0.1,0,0.3-0.1,0.3-0.2
	C7,4.2,7,4.3,6.9,4.3c-0.2-0.1,0-0.2,0-0.2C6.8,3.9,6.5,4.2,6.4,4.2c0-0.1,0.1-0.1,0.1-0.1c0,0-0.1,0-0.1,0c0.1,0,0.2-0.1,0.3-0.2
	c0.1,0,0.2,0,0.3,0c0.1,0,0.1,0,0.2-0.1c0.1,0,0.2-0.1,0.2-0.2c0-0.1-0.2,0-0.3,0c0-0.1,0.1-0.1,0.2-0.1C7.2,3.5,7.1,3.4,7,3.3
	c0.1,0-0.1-0.3-0.2-0.4C6.8,3,6.8,3.2,6.7,3.2c-0.1,0-0.1-0.1-0.2-0.1c0.1-0.2-0.1-0.3-0.3-0.4C6,2.7,5.9,2.8,6,3c0,0,0,0,0,0
	c0,0,0,0.1,0,0.1c0.2,0.1,0.1,0.4-0.1,0.4c0.1,0.1,0.1,0.3,0,0.3c-0.1,0-0.2-0.3-0.2-0.4c-0.2,0-0.3,0-0.4-0.1
	c-0.1,0-0.1-0.1-0.2-0.1c0,0-0.1,0-0.1,0c0,0,0-0.1-0.1-0.1C4.9,3.1,4.8,3.1,4.9,3c0-0.1,0.1-0.2,0.1-0.2c0,0,0.2-0.1,0.1-0.1
	c0,0-0.2-0.1-0.2-0.1c0.1,0,0.3,0.1,0.3,0c0.1,0.1,0.2,0,0.2-0.1c-0.1,0-0.2,0-0.3-0.1c0.1,0,0.4,0.1,0.3-0.1c0.2,0,0.1,0.2,0,0.3
	c0.1,0.1,0.1,0.1,0.2,0.1c0,0,0.1,0,0.1,0c0,0,0.1,0,0.1,0c0.2,0-0.2-0.2-0.2-0.2c0.1,0,0,0,0.1,0c0.1,0,0.2-0.1,0.1-0.2
	c0.2,0,0-0.2-0.1-0.2c0.1,0,0.2,0,0.4,0c0,0,0,0-0.1-0.1C6,1.9,6.1,2,6.2,2.1c0,0,0.1,0.1,0.1,0.2c0,0.1-0.2,0.1-0.1,0.2
	c-0.1,0-0.3,0-0.3,0.1c0,0.1,0.2,0,0.2,0c0.1,0,0.2,0.1,0.2,0.2c0.1,0.1,0.2,0.1,0.3,0.1c0-0.1-0.1-0.1-0.2-0.2
	c0.1,0,0.2,0.1,0.3,0.1c0,0,0-0.1,0-0.1C6.8,2.6,6.7,2.5,6.6,2.4c0.1-0.1,0.1,0,0.2,0c0.1,0.1,0.1,0.1,0.2,0.1c0,0,0.1-0.1,0.1-0.1
	c0-0.1,0,0,0-0.1C7,2.2,6.5,2.1,6.7,2c0,0-0.1,0-0.1,0c0,0,0,0,0,0c0,0-0.1,0-0.1-0.1c0,0,0,0,0,0c-0.1,0-0.1,0-0.2-0.1c0,0,0,0,0,0
	c-0.2,0-0.2-0.1-0.3-0.1C6,1.6,5.8,1.7,5.8,1.7c-0.1,0,0-0.1,0-0.1C5.7,1.4,5.7,1.5,5.6,1.5c-0.2,0-0.2,0.2-0.1,0.3
	c-0.2,0-0.2-0.2,0-0.3c-0.1,0-0.3,0-0.3,0.2C5.1,1.8,5.3,1.7,5.3,1.8c-0.1,0-0.1,0-0.1,0c0,0.1,0.2,0.1,0.3,0.1
	c-0.1,0-0.1,0.4-0.2,0.3c-0.1,0,0-0.1,0-0.1C5.3,2,5.2,2.1,5.2,2c0,0-0.1,0-0.2-0.1C5,1.9,5,1.6,4.8,1.7C4.6,1.9,5,2.1,4.8,2
	c0,0.1,0.1,0.1,0.2,0c0,0.1-0.2,0.1-0.1,0.2c-0.1-0.1-0.1,0-0.1-0.1c-0.1,0,0,0-0.1-0.1c0,0,0,0,0,0c0-0.1,0-0.1-0.1-0.1
	C4.6,2,4.6,2,4.5,2c0,0,0.1,0.1,0.1,0.1C4.6,2.2,4.4,2.2,4.3,2.1c-0.1,0-0.1-0.1-0.2,0C3.9,2.2,4,2.2,4,2.3C3.9,2.1,3.7,2.2,3.5,2.2
	c0,0,0,0,0.1-0.1C3.5,2,3.2,2,3.1,2c-0.1,0-0.2,0.1-0.3,0c0,0.1-0.1,0-0.1,0c0,0,0-0.1-0.1-0.1c-0.1,0,0,0-0.1,0
	C2.6,1.9,2.4,2,2.3,2C2.4,2,2.5,2,2.5,1.9C2.4,1.9,2.3,2,2.2,2C2,2,1.9,2,1.7,1.9c-0.2,0-0.3,0-0.4-0.1C1.1,1.9,1,1.8,0.8,1.8
	c0,0,0,0,0,0c-0.1,0-0.2,0-0.3,0.1C0.4,1.9,0.4,2,0.3,2C0.1,2.1,0,2,0.2,2.2c0.1,0.1,0.2,0.1,0.3,0.2c-0.1,0-0.2,0-0.2-0.1
	C0.2,2.4,0.1,2.3,0,2.4c0.1,0,0.1,0.1,0.2,0.1c0.1,0,0.2,0,0.3,0c0,0.3-0.3,0.1-0.3,0.3c0,0.1,0.1,0.3,0.2,0.2c0,0,0.1,0.1,0,0.2
	c0.1,0,0.2,0,0.2,0c0,0,0.1,0,0.1,0C0.7,3.4,0.3,3.3,0.2,3.5C0.4,3.6,0.8,3.2,1,3.1c0,0,0-0.1-0.1-0.1C1,3,1.1,2.8,1.3,2.9
	c-0.2,0-0.2,0-0.2,0.1C1.2,3,1.2,3,1.3,2.9C1.3,3,1.3,3,1.3,2.9z M1,3.2C1,3.2,1,3.2,1,3.2c-0.1,0-0.2,0-0.1,0.1
	C0.9,3.3,1,3.3,1,3.2z"/>
</svg>
