<?xml version="1.0" encoding="utf-8"?>
<!-- Generator: Adobe Illustrator 21.0.0, SVG Export Plug-In . SVG Version: 6.00 Build 0)  -->
<svg version="1.1" id="Capa_1" xmlns="http://www.w3.org/2000/svg" xmlns:xlink="http://www.w3.org/1999/xlink" x="0px" y="0px"
	 viewBox="0 0 409.6 409.6" style="enable-background:new 0 0 409.6 409.6;" xml:space="preserve">
<style type="text/css">
	.st0{fill:#F0F0F0;}
	.st1{fill:#338AF3;}
	.st2{fill:#FFDA44;}
</style>
<g>
	<path class="st0" d="M409.6,204.8c0,113.1-91.7,204.8-204.8,204.8C91.7,409.6,0,317.9,0,204.8C0,91.7,91.7,0,204.8,0
		C317.9,0,409.6,91.7,409.6,204.8L409.6,204.8z M409.6,204.8"/>
	<path class="st1" d="M204.8,0C123.6,0,53.4,47.3,20.3,115.8h369C356.2,47.3,286,0,204.8,0L204.8,0z M204.8,0"/>
	<path class="st1" d="M204.8,409.6c81.2,0,151.4-47.3,184.5-115.8h-369C53.4,362.3,123.6,409.6,204.8,409.6L204.8,409.6z
		 M204.8,409.6"/>
	<path class="st2" d="M266,204.8l-25,11.8l13.3,24.2l-27.2-5.2l-3.4,27.4l-18.9-20.2L185.9,263l-3.4-27.4l-27.2,5.2l13.3-24.2
		l-25-11.8l25-11.8l-13.3-24.2l27.2,5.2l3.4-27.4l18.9,20.2l18.9-20.2l3.4,27.4l27.2-5.2L241,193L266,204.8z M266,204.8"/>
</g>
</svg>
