<?xml version="1.0" encoding="utf-8"?>
<!-- Generator: Adobe Illustrator 21.0.0, SVG Export Plug-In . SVG Version: 6.00 Build 0)  -->
<svg version="1.1" id="Capa_1" xmlns="http://www.w3.org/2000/svg" xmlns:xlink="http://www.w3.org/1999/xlink" x="0px" y="0px"
	 viewBox="0 0 409.6 409.6" style="enable-background:new 0 0 409.6 409.6;" xml:space="preserve">
<style type="text/css">
	.st0{fill:#6DA544;}
	.st1{fill:#FFDA44;}
	.st2{fill:#F0F0F0;}
	.st3{fill:#0052B4;}
</style>
<g>
	<path class="st0" d="M409.6,204.8c0,113.1-91.7,204.8-204.8,204.8C91.7,409.6,0,317.9,0,204.8C0,91.7,91.7,0,204.8,0
		C317.9,0,409.6,91.7,409.6,204.8L409.6,204.8z M409.6,204.8"/>
	<path class="st1" d="M204.8,80.1L374,204.8L204.8,329.5L35.6,204.8L204.8,80.1z M204.8,80.1"/>
	<path class="st2" d="M276,204.8c0,39.3-31.9,71.2-71.2,71.2c-39.3,0-71.2-31.9-71.2-71.2c0-39.3,31.9-71.2,71.2-71.2
		C244.1,133.6,276,165.5,276,204.8L276,204.8z M276,204.8"/>
	<path class="st3" d="M169.2,200.3c-12.4,0-24.3,1.9-35.6,5.4c0.5,38.9,32.2,70.3,71.2,70.3c24.1,0,45.4-12,58.3-30.4
		C241.1,218.1,207.2,200.3,169.2,200.3L169.2,200.3z M169.2,200.3"/>
	<path class="st3" d="M274.7,218.4c0.9-4.4,1.3-9,1.3-13.6c0-39.3-31.9-71.2-71.2-71.2c-29.4,0-54.6,17.8-65.5,43.1
		c9.6-2,19.6-3,29.8-3C210.6,173.6,248,190.8,274.7,218.4L274.7,218.4z M274.7,218.4"/>
</g>
</svg>
