<?xml version="1.0" encoding="utf-8"?>
<!-- Generator: Adobe Illustrator 21.0.0, SVG Export Plug-In . SVG Version: 6.00 Build 0)  -->
<svg version="1.1" id="Capa_1" xmlns="http://www.w3.org/2000/svg" xmlns:xlink="http://www.w3.org/1999/xlink" x="0px" y="0px"
	 viewBox="0 0 409.6 409.6" style="enable-background:new 0 0 409.6 409.6;" xml:space="preserve">
<style type="text/css">
	.st0{fill:#F0F0F0;}
	.st1{fill:#D80027;}
	.st2{fill:#0052B4;}
</style>
<g>
	<path class="st0" d="M409.6,204.8c0,113.1-91.7,204.8-204.8,204.8C91.7,409.6,0,317.9,0,204.8C0,91.7,91.7,0,204.8,0
		C317.9,0,409.6,91.7,409.6,204.8L409.6,204.8z M409.6,204.8"/>
	<path class="st1" d="M409.6,204.8c0,113.1-91.7,204.8-204.8,204.8C91.7,409.6,0,317.9,0,204.8c0-113.1,204.8,0,204.8,0H409.6z
		 M409.6,204.8"/>
	<path class="st2" d="M0,204.8C0,91.7,91.7,0,204.8,0v204.8H0z M0,204.8"/>
	<path class="st0" d="M121.9,71.2l13.3,40.8h42.9l-34.7,25.2l13.3,40.8l-34.7-25.2l-34.7,25.2l13.3-40.8L65.7,112h42.9L121.9,71.2z
		 M121.9,71.2"/>
</g>
</svg>
