<?xml version="1.0" encoding="utf-8"?>
<!-- Generator: Adobe Illustrator 21.0.0, SVG Export Plug-In . SVG Version: 6.00 Build 0)  -->
<svg version="1.1" id="Capa_1" xmlns="http://www.w3.org/2000/svg" xmlns:xlink="http://www.w3.org/1999/xlink" x="0px" y="0px"
	 viewBox="0 0 53.4 17.2" style="enable-background:new 0 0 53.4 17.2;" xml:space="preserve">
<style type="text/css">
	.st0{fill:#DC1C52;}
	.st1{fill:#FFFFFF;}
</style>
<g>
	<path class="st0" d="M9.4,4.8c0.2,0.4,0,2.6,0.1,3.1C9.2,8.1,8.6,8.3,7.9,8.5L6.3,9C6.2,8.5,5.9,8.3,5.5,8.3C4.9,8.4,4.4,8.6,4,9
		c-0.3,0.4-0.3,0.7-0.2,1c0.1,0.2,0.5,0.3,1,0.2c0.3,0,0.6-0.1,1.1-0.1C6.6,10,7.2,10,7.7,9.9c1.3-0.1,2.7-0.4,3.1,0.2
		c0.2,0.2,0.3,0.9-0.3,1.2c0.2,0.7,0.1,1.5-0.4,2.3c-0.6,1.1-1.6,2-3,2.8c-0.7,0.4-1.6,0.6-2.4,0.7c-0.8,0-1.7-0.1-2.6-0.3
		c0.2-0.7,0.4-1.7,0.8-3c0.6,0.2,1.1,0.3,1.7,0.3c0.3,0,0.5-0.1,0.7-0.1c0.5-0.1,0.9-0.3,1.2-0.4c0.5-0.3,0.8-0.5,0.7-0.8
		c-0.1-0.3-0.5-0.4-1.1-0.4c-0.4,0-1,0.1-1.8,0.3C3.7,12.9,3.1,13,2.6,13c-0.6,0-1,0-1.3-0.2c-0.7-0.2-1.1-0.7-1.2-1.3
		C-0.2,10.4,0.4,9,1.8,7.3c1.4-1.7,2.9-2.7,4.4-2.8C7.6,4.4,8.8,3.3,9.4,4.8z"/>
	<path class="st0" d="M9.7,2.5l3.7,1.9c0,3.1,0.1,5.9,0.4,8.4l3.9-0.6l0.7,3.1c-2,0.2-4.6,0.7-7.5,1.5L9.7,2.5z"/>
	<path class="st0" d="M17.6,15.9c0.9-3.8,1.5-7.6,1.8-11.4l4.8-0.9c0.9,3.4,2.4,7.2,4.4,11.5l-3.7,0.9l-0.7-2l-2.4,0.3l-0.3,2.1
		L17.6,15.9z"/>
	<path class="st0" d="M27.2,1.4l3.7,1.9c0.1,0.3,0.3,0.8,0.5,1.5c0.5,1.5,1.1,2.7,1.6,3.8c0.3,0.6,0.6,1.1,0.8,1.5l-0.6-9L36.9,3
		c-0.1,4.4,0.2,8.2,0.9,11.4l-3.4,0.9c0,0-0.2-0.2-0.5-0.6l-2-2.3c-0.3-0.4-0.6-0.6-0.6-0.8c0.1,1.3,0.3,2.6,0.6,3.8l-3.4,0.9
		L27.2,1.4z"/>
	<path class="st0" d="M40.8,15.2c-0.7-0.3-1.3-0.7-1.9-1.3c-0.3-0.3-0.5-0.6-0.7-1c-0.2-0.4-0.4-0.7-0.5-1.1
		c-0.1-0.4-0.2-0.8-0.3-1.2c-0.1-0.4-0.1-0.8-0.1-1.2c0-0.7,0.1-1.5,0.3-2.2c0.3-0.7,0.6-1.4,1.1-2.1c0.6-0.8,1.2-1.4,2-1.8
		c0.8-0.4,1.6-0.6,2.5-0.7c0.8,0,1.6,0.1,2.3,0.4c0.7,0.3,1.3,0.7,1.8,1.3l-0.9,1l-0.9,1.1C44.8,5.9,44,5.7,43.1,6
		c-0.8,0.3-1.4,0.9-1.9,1.8c-0.6,1-0.7,2.1-0.4,3.2c0.2,0.6,0.4,1,0.8,1.3c0.5,0.4,1.1,0.5,1.9,0.4c0.6-0.1,1.2-0.3,1.6-0.7
		c0.4-0.4,0.7-0.8,0.8-1.4c-0.5,0.1-1,0.2-1.6,0.3c-0.4,0.1-1,0.2-1.6,0.4l-0.1-1.2l-0.1-1.2l3.2-0.6l3.1-0.6
		c0.1,0.3,0.2,0.7,0.2,1.1c0,0.4,0,0.8,0,1.3c-0.1,0.4-0.2,0.8-0.3,1.2c-0.1,0.4-0.3,0.7-0.5,1.1c-0.6,1-1.3,1.8-2.1,2.3
		c-0.9,0.5-2,0.8-3.2,0.9C42.2,15.6,41.5,15.4,40.8,15.2z"/>
	<path class="st0" d="M51.1,15.2c-0.3,0-0.6-0.1-0.8-0.2c-0.2-0.1-0.4-0.3-0.5-0.4c-0.1-0.2-0.3-0.4-0.4-0.6
		c-0.1-0.2-0.1-0.4-0.1-0.6c0-0.3,0.1-0.5,0.2-0.6c0.2-0.2,0.3-0.3,0.5-0.5c0.2-0.1,0.4-0.2,0.7-0.3c0.3-0.1,0.5-0.1,0.8-0.1
		c0.3,0,0.6,0.1,0.8,0.3c0.2,0.1,0.4,0.3,0.6,0.4c0.2,0.2,0.3,0.3,0.3,0.6c0.1,0.2,0.1,0.4,0.1,0.7c0,0.2-0.1,0.4-0.3,0.6
		c-0.1,0.2-0.3,0.4-0.5,0.5c-0.2,0.1-0.4,0.2-0.7,0.3C51.6,15.3,51.4,15.3,51.1,15.2z M49.9,10.8c0,0-0.1-1.3-0.4-4
		c-0.1-1.2-0.3-5.3-0.5-6.9l4.2,0l-0.5,10.8C50.7,10.8,49.8,10.8,49.9,10.8z"/>
</g>
<polygon class="st0" points="0,8 0,10.6 2.4,9.6 "/>
<polygon class="st0" points="9,8.9 4.2,9.3 2.4,11.1 6,11.1 9,9.1 "/>
<path class="st0" d="M47.4,1.9l0.2,3.7l-2.5,0.9L47.2,7l1.7-2l0.3,4.1l-4.8,3.8c0,0-7.2-2.8-7-2.9C37.5,10,39.7,3,39.7,3L47.4,1.9z"
	/>
<path class="st0" d="M17.1,11.4l0.5,4.5l5-2.5l2.8,1.2l4,0.5l2.4,0.3l0.1-3.1l5.9,2v-3l-5.3-2.4l-3.2,2.2l-1.1,1.5
	c0,0-3.6-2.4-3.9-2.4S17.1,11.4,17.1,11.4z"/>
<polygon class="st0" points="53.4,10.8 53.4,14.1 50.6,14.1 49.4,13.4 49.4,10.8 50,10.1 "/>
<g>
	<path class="st1" d="M9.1,4.1c0.2,0.4,0.3,0.8,0.4,1.3C9.2,5.5,8.6,5.7,7.9,5.9L6.3,6.4C6.2,6,5.9,5.7,5.5,5.7C4.9,5.8,4.4,6,4,6.5
		c-0.3,0.4-0.3,0.7-0.2,1c0.1,0.2,0.5,0.3,1,0.2c0.3,0,0.6-0.1,1.1-0.1c0.7-0.1,1.2-0.2,1.7-0.2c1.3-0.1,2.1,0.2,2.5,0.8
		c0.2,0.2,0.3,0.4,0.4,0.6c0.2,0.7,0.1,1.5-0.4,2.3c-0.6,1.1-1.6,2-3,2.8c-0.7,0.4-1.6,0.6-2.4,0.7c-0.8,0-1.7-0.1-2.6-0.3
		c0.2-0.7,0.4-1.7,0.8-3c0.6,0.2,1.1,0.3,1.7,0.3c0.3,0,0.5-0.1,0.7-0.1c0.5-0.1,0.9-0.3,1.2-0.4c0.5-0.3,0.8-0.5,0.7-0.8
		C7.2,10,6.8,9.9,6.2,9.9c-0.4,0-1,0.1-1.8,0.3c-0.8,0.2-1.4,0.3-1.8,0.3c-0.6,0-1,0-1.3-0.2C0.5,10,0.1,9.6,0.1,9
		c-0.2-1.2,0.3-2.6,1.8-4.3C3.3,3,4.7,2,6.2,1.9C7.6,1.8,8.6,2.5,9.1,4.1z"/>
	<path class="st1" d="M9.7,2.5l3.7-0.7c0,3.1,0.1,5.9,0.4,8.4l3.9-0.6l0.7,3.1c-2,0.2-4.6,0.7-7.5,1.5L9.7,2.5z"/>
	<path class="st1" d="M17.6,13.3c0.9-3.8,1.5-7.6,1.8-11.4L24.3,1c0.9,3.4,2.4,7.2,4.4,11.5l-3.7,0.9l-0.7-2l-2.4,0.3l-0.3,2.1
		L17.6,13.3z M23.5,9.3l-1.3-4.3l-0.3,4.4L23.5,9.3z"/>
	<path class="st1" d="M27.2,1.4l3.7-0.7C31,1,31.2,1.5,31.4,2.1c0.5,1.5,1.1,2.7,1.6,3.8c0.3,0.6,0.6,1.1,0.8,1.5l-0.6-6.4l3.8-0.7
		c-0.1,4.4,0.2,8.2,0.9,11.4l-3.4,0.9c0,0-0.2-0.2-0.5-0.6l-2-2.3c-0.3-0.4-0.6-0.6-0.6-0.8c0.1,1.3,0.3,2.6,0.6,3.8l-3.4,0.9
		L27.2,1.4z"/>
	<path class="st1" d="M40.8,12.6c-0.7-0.3-1.3-0.7-1.9-1.3c-0.3-0.3-0.5-0.6-0.7-1C38,10,37.9,9.6,37.8,9.3
		c-0.1-0.4-0.2-0.8-0.3-1.2c-0.1-0.4-0.1-0.8-0.1-1.2c0-0.7,0.1-1.5,0.3-2.2C38,4,38.4,3.3,38.8,2.6c0.6-0.8,1.2-1.4,2-1.8
		c0.8-0.4,1.6-0.6,2.5-0.7c0.8,0,1.6,0.1,2.3,0.4c0.7,0.3,1.3,0.7,1.8,1.3l-0.9,1L45.6,4c-0.8-0.7-1.6-0.9-2.4-0.6
		c-0.8,0.3-1.4,0.9-1.9,1.8c-0.6,1-0.7,2.1-0.4,3.2c0.2,0.6,0.4,1,0.8,1.3c0.5,0.4,1.1,0.5,1.9,0.4c0.6-0.1,1.2-0.3,1.6-0.7
		C45.6,9,45.9,8.6,46,8c-0.5,0.1-1,0.2-1.6,0.3c-0.4,0.1-1,0.2-1.6,0.4l-0.1-1.2l-0.1-1.2l3.2-0.6l3.1-0.6c0.1,0.3,0.2,0.7,0.2,1.1
		c0,0.4,0,0.8,0,1.3c-0.1,0.4-0.2,0.8-0.3,1.2c-0.1,0.4-0.3,0.7-0.5,1.1c-0.6,1-1.3,1.8-2.1,2.3c-0.9,0.5-2,0.8-3.2,0.9
		C42.2,13,41.5,12.8,40.8,12.6z"/>
	<path class="st1" d="M51.1,12.7c-0.3,0-0.6-0.1-0.8-0.2c-0.2-0.1-0.4-0.3-0.5-0.4c-0.1-0.2-0.3-0.4-0.4-0.6
		c-0.1-0.2-0.1-0.4-0.1-0.6c0-0.3,0.1-0.5,0.2-0.6c0.2-0.2,0.3-0.3,0.5-0.5c0.2-0.1,0.4-0.2,0.7-0.3c0.3-0.1,0.5-0.1,0.8-0.1
		c0.3,0,0.6,0.1,0.8,0.3c0.2,0.1,0.4,0.3,0.6,0.4c0.2,0.2,0.3,0.3,0.3,0.6s0.1,0.4,0.1,0.7c0,0.2-0.1,0.4-0.3,0.6
		c-0.1,0.2-0.3,0.4-0.5,0.5c-0.2,0.1-0.4,0.2-0.7,0.3C51.6,12.7,51.4,12.7,51.1,12.7z M49.9,8.2c0,0-0.1-1.3-0.4-4
		C49.3,3,49.1,1.6,48.9,0l4.2,0l-0.5,8.2C50.7,8.2,49.8,8.2,49.9,8.2z"/>
</g>
</svg>
