<?xml version="1.0" encoding="utf-8"?>
<!-- Generator: Adobe Illustrator 21.0.0, SVG Export Plug-In . SVG Version: 6.00 Build 0)  -->
<svg version="1.1" id="Capa_1" xmlns="http://www.w3.org/2000/svg" xmlns:xlink="http://www.w3.org/1999/xlink" x="0px" y="0px"
	 viewBox="0 0 409.6 409.6" style="enable-background:new 0 0 409.6 409.6;" xml:space="preserve">
<style type="text/css">
	.st0{fill:#F0F0F0;}
	.st1{fill:#D80027;}
	.st2{fill:#0052B4;}
</style>
<g>
	<path class="st0" d="M409.6,204.8c0,113.1-91.7,204.8-204.8,204.8C91.7,409.6,0,317.9,0,204.8C0,91.7,91.7,0,204.8,0
		C317.9,0,409.6,91.7,409.6,204.8L409.6,204.8z M409.6,204.8"/>
	<path class="st1" d="M195.9,204.8h213.7c0-18.5-2.5-36.4-7.1-53.4H195.9V204.8z M195.9,204.8"/>
	<path class="st1" d="M195.9,97.9h183.6C367,77.5,351,59.4,332.3,44.5H195.9V97.9z M195.9,97.9"/>
	<path class="st1" d="M204.8,409.6c48.2,0,92.5-16.7,127.5-44.5h-255C112.3,392.9,156.6,409.6,204.8,409.6L204.8,409.6z
		 M204.8,409.6"/>
	<path class="st1" d="M30.1,311.7h349.5c10.1-16.4,17.9-34.4,23-53.4H7.1C12.2,277.3,20,295.2,30.1,311.7L30.1,311.7z M30.1,311.7"
		/>
	<path class="st2" d="M94.9,32h18.7L96.2,44.6l6.6,20.4L85.4,52.4L68.1,65l5.7-17.6C58.5,60.1,45.1,75,34.1,91.6h6l-11.1,8
		c-1.7,2.9-3.4,5.8-5,8.8l5.3,16.2l-9.8-7.2c-2.4,5.2-4.7,10.5-6.7,15.9l5.8,17.9h21.5l-17.4,12.6l6.6,20.4L12,171.7l-10.4,7.6
		c-1,8.4-1.6,16.9-1.6,25.5h204.8V0C164.3,0,126.6,11.7,94.9,32L94.9,32z M102.8,184.3l-17.4-12.6l-17.4,12.6l6.6-20.4l-17.4-12.6
		h21.5l6.6-20.4l6.6,20.4h21.5l-17.4,12.6L102.8,184.3z M96.2,104.3l6.6,20.4L85.4,112l-17.4,12.6l6.6-20.4L57.4,91.6h21.5l6.6-20.4
		l6.6,20.4h21.5L96.2,104.3z M176.3,184.3l-17.4-12.6l-17.4,12.6l6.6-20.4l-17.4-12.6h21.5l6.6-20.4l6.6,20.4H187l-17.4,12.6
		L176.3,184.3z M169.6,104.3l6.6,20.4L158.9,112l-17.4,12.6l6.6-20.4l-17.4-12.6h21.5l6.6-20.4l6.6,20.4H187L169.6,104.3z
		 M169.6,44.6l6.6,20.4l-17.4-12.6L141.5,65l6.6-20.4L130.8,32h21.5l6.6-20.4l6.6,20.4H187L169.6,44.6z M169.6,44.6"/>
</g>
</svg>
